<?xml version="1.0" encoding="utf-8"?>
<!-- Generator: Adobe Illustrator 21.0.0, SVG Export Plug-In . SVG Version: 6.00 Build 0)  -->
<svg version="1.2" baseProfile="tiny" id="Layer_1" xmlns="http://www.w3.org/2000/svg" xmlns:xlink="http://www.w3.org/1999/xlink"
	 x="0px" y="0px" viewBox="0 0 141.7 141.7" xml:space="preserve">
<g>
	<g>
		<path fill="#FFFFFF" d="M132.3,35.6c19.5,33.9,7.7,77.2-26.2,96.7c-33.9,19.5-77.2,7.7-96.7-26.2C-10.1,72.2,1.7,28.9,35.6,9.4
			C69.6-10.1,112.9,1.7,132.3,35.6z"/>
	</g>
	<g>
		<path fill="#2075BC" d="M125.7,39.4c17.4,30.3,6.9,69-23.4,86.4c-30.3,17.4-69,6.9-86.4-23.4C-1.4,72.1,9.1,33.4,39.4,16
			C69.7-1.4,108.4,9.1,125.7,39.4z"/>
	</g>
	<g>
		<path fill="#1562AD" stroke="#1562AD" stroke-width="8.8424" stroke-miterlimit="10" d="M115.2,46.5l-0.1,44
			c0,0.7-0.2,1.5-0.6,2.3c-0.7,1.5-1.8,2.9-2.9,3.4l-39.4,21.6c-1.8,1-5.1,0.8-6.8-0.5L31.5,93.8c-1.8-1.3-3.5-4.4-3.5-6.6l-0.2-42
			c0-0.5,0.1-1.1,0.5-1.7c0.5-0.9,1.5-1.6,2.4-1.9L68.9,24c2.2-0.6,3.9-0.7,6,0l37.2,18.6C113.7,43.1,115.2,45,115.2,46.5z"/>
		<path fill="#1562AD" d="M115.2,46.5l-0.1,44c0,0.7-0.2,1.5-0.6,2.3c-0.7,1.5-1.8,2.9-2.9,3.4l-39.4,21.6c-1.8,1-5.1,0.8-6.8-0.5
			L31.5,93.8c-1.8-1.3-3.5-4.4-3.5-6.6l-0.2-42c0-0.5,0.1-1.1,0.5-1.7c0.5-0.9,1.5-1.6,2.4-1.9L68.9,24c2.2-0.6,3.9-0.7,6,0
			l37.2,18.6C113.7,43.1,115.2,45,115.2,46.5z"/>
		<path fill="#FFFFFF" d="M115.2,46.6l-0.1,44c0,0.7-0.2,1.5-0.6,2.3c-0.7,1.5-1.8,2.9-2.9,3.4l-39.4,21.6c-1.8,1-5.1,0.8-6.8-0.5
			L31.5,93.9c-1.8-1.3-3.5-4.4-3.5-6.6l-0.2-42c0-0.5,0.1-1.1,0.5-1.7c0.5-0.9,1.5-1.6,2.4-1.9l38.2-17.7c2.2-0.6,3.9-0.7,6,0
			l37.2,18.6C113.7,43.2,115.2,45,115.2,46.6z M34.2,47.5c-0.9-0.3-1-0.1-0.2,0.3l28.5,21.3c0.8,0.5,1.6,1.6,1.7,2.5l4.4,39.4
			c0.1,1,0.2,1,0.3,0l2.6-39.8c0-0.9,0.8-2,1.7-2.3l35.1-21c0.9-0.3,0.8-0.5-0.1-0.2l-39,15.6c-0.9,0.2-2.5,0.2-3.4-0.1L34.2,47.5z"
			/>
	</g>
</g>
</svg>
