<?xml version="1.0" encoding="UTF-8"?>
<svg width="10px" height="10px" viewBox="0 0 10 10" version="1.1" xmlns="http://www.w3.org/2000/svg" xmlns:xlink="http://www.w3.org/1999/xlink">
    <!-- Generator: Sketch 42 (36781) - http://www.bohemiancoding.com/sketch -->
    <title>Combined Shape</title>
    <desc>Created with Sketch.</desc>
    <defs></defs>
    <g id="Page-1" stroke="none" stroke-width="1" fill="none" fill-rule="evenodd" fill-opacity="0.6">
        <g id="Consumer---Article-1---Desktop" transform="translate(-1375.000000, -1777.000000)" fill="#3E4246">
            <g id="Sticky-newsletter" transform="translate(0.000000, 1740.000000)">
                <g id="Close-button" transform="translate(1380.000000, 42.000000) rotate(-90.000000) translate(-1380.000000, -42.000000) translate(1362.000000, 24.000000)">
                    <path d="M18,18.8697581 L13.9160215,22.9510697 C13.8014819,23.0656093 13.6155027,23.0656093 13.5009631,22.9510697 L13.0859047,22.5363065 C12.9713651,22.421767 12.9713651,22.2360829 13.0859047,22.1215433 L16.9843836,18.2257212 C17.0989232,18.1114768 17.0989232,17.9254976 16.9843836,17.810958 L13.0859047,13.9154311 C12.9713651,13.8008915 12.9713651,13.6152075 13.0859047,13.5006679 L13.5009631,13.0859047 C13.6155027,12.9713651 13.8014819,12.9713651 13.9160215,13.0859047 L18,17.1672163 L22.0839785,13.0859047 C22.1985181,12.9713651 22.3844973,12.9713651 22.4990369,13.0859047 L22.9140953,13.5006679 C23.0286349,13.6152075 23.0286349,13.8008915 22.9140953,13.9154311 L19.0156164,17.8112532 C18.9010768,17.9254976 18.9010768,18.1114768 19.0156164,18.2260164 L22.9140953,22.1215433 C23.0286349,22.2360829 23.0286349,22.421767 22.9140953,22.5363065 L22.4990369,22.9510697 C22.3844973,23.0656093 22.1985181,23.0656093 22.0839785,22.9510697 L18,18.8697581 Z" id="Combined-Shape"></path>
                </g>
            </g>
        </g>
    </g>
</svg>