<?xml version="1.0" encoding="UTF-8"?>
<svg width="177px" height="52px" viewBox="0 0 177 52" version="1.1" xmlns="http://www.w3.org/2000/svg" xmlns:xlink="http://www.w3.org/1999/xlink">
    <!-- Generator: Sketch 41.2 (35397) - http://www.bohemiancoding.com/sketch -->
    <title>Appstore</title>
    <desc>Created with Sketch.</desc>
    <defs></defs>
    <g id="Symbols" stroke="none" stroke-width="1" fill="none" fill-rule="evenodd">
        <g id="Download" transform="translate(-851.000000, -100.000000)">
            <g transform="translate(0.000000, 1.000000)" id="download">
                <g>
                    <g id="Group-3" transform="translate(219.000000, 90.000000)">
                        <g id="Badges" transform="translate(632.000000, 9.000000)">
                            <g id="Appstore">
                                <rect id="backfround-copy" fill="#000000" x="0" y="0" width="176.190476" height="51.9607843" rx="3.74526678"></rect>
                                <path d="M67.6283911,39.9049179 L70.5896891,39.9049179 L64.1071839,22.0665917 L61.1085586,22.0665917 L54.6260533,39.9049179 L57.4878119,39.9049179 L59.1426549,35.1702824 L65.9859906,35.1702824 L67.6283911,39.9049179 Z M62.4647833,25.3054285 L62.6763046,25.3054285 L65.2767721,32.8462316 L59.8518733,32.8462316 L62.4647833,25.3054285 Z M78.44162,26.2202144 C76.6001406,26.2202144 75.0075097,27.1350004 74.1863094,28.667885 L73.9872306,28.667885 L73.9872306,26.4427299 L71.4116479,26.4427299 L71.4116479,44.2686941 L74.08677,44.2686941 L74.08677,37.8651924 L74.2982913,37.8651924 C75.0075097,39.2868193 76.5379284,40.1274334 78.4665048,40.1274334 C81.8881727,40.1274334 84.0655977,37.4448854 84.0655977,33.1676429 C84.0655977,28.8904005 81.8881727,26.2202144 78.44162,26.2202144 L78.44162,26.2202144 Z M77.6826318,37.7415727 C75.4429947,37.7415727 74.0370003,35.9861726 74.0370003,33.1800049 C74.0370003,30.3614752 75.4429947,28.6060751 77.6950743,28.6060751 C79.9595963,28.6060751 81.315821,30.3243893 81.315821,33.1676429 C81.315821,36.0232585 79.9595963,37.7415727 77.6826318,37.7415727 L77.6826318,37.7415727 Z M92.3156863,26.2202144 C90.4742068,26.2202144 88.881576,27.1350004 88.0603757,28.667885 L87.8612968,28.667885 L87.8612968,26.4427299 L85.2857141,26.4427299 L85.2857141,44.2686941 L87.9608363,44.2686941 L87.9608363,37.8651924 L88.1723575,37.8651924 C88.881576,39.2868193 90.4119947,40.1274334 92.3405711,40.1274334 C95.762239,40.1274334 97.939664,37.4448854 97.939664,33.1676429 C97.939664,28.8904005 95.762239,26.2202144 92.3156863,26.2202144 L92.3156863,26.2202144 Z M91.5566981,37.7415727 C89.317061,37.7415727 87.9110665,35.9861726 87.9110665,33.1800049 C87.9110665,30.3614752 89.317061,28.6060751 91.5691405,28.6060751 C93.8336625,28.6060751 95.1898872,30.3243893 95.1898872,33.1676429 C95.1898872,36.0232585 93.8336625,37.7415727 91.5566981,37.7415727 L91.5566981,37.7415727 Z M103.602486,35.1084726 C103.801565,38.2978615 106.476687,40.3375869 110.458264,40.3375869 C114.713575,40.3375869 117.376254,38.1989657 117.376254,34.7870613 C117.376254,32.1045133 115.858278,30.6210766 112.175319,29.7681005 L110.196973,29.2859836 C107.857796,28.7420568 106.912172,28.0127004 106.912172,26.7394173 C106.912172,25.1323608 108.380378,24.0815932 110.582688,24.0815932 C112.673016,24.0815932 114.116338,25.1076369 114.377629,26.7517792 L117.090078,26.7517792 C116.928327,23.7478199 114.265647,21.6339227 110.620016,21.6339227 C106.700651,21.6339227 104.087741,23.7478199 104.087741,26.9248468 C104.087741,29.545585 105.56839,31.1031935 108.815863,31.8572738 L111.130155,32.4135626 C113.506659,32.9698514 114.551823,33.7857415 114.551823,35.1455585 C114.551823,36.727891 112.909422,37.8775544 110.669785,37.8775544 C108.268397,37.8775544 106.601111,36.8020628 106.364705,35.1084726 L103.602486,35.1084726 Z M119.678862,23.1791692 L119.678862,26.5045398 L117.451667,26.5045398 L117.451667,28.7420568 L119.678862,28.7420568 L119.678862,36.3446698 C119.678862,38.940684 120.860893,39.9790897 123.834633,39.9790897 C124.357215,39.9790897 124.84247,39.9172799 125.265512,39.843108 L125.265512,37.630315 C124.89224,37.6674009 124.680718,37.6921248 124.270118,37.6921248 C122.938778,37.6921248 122.353984,37.0740262 122.353984,35.6647613 L122.353984,28.7420568 L125.389937,28.7420568 L125.389937,26.5045398 L122.353984,26.5045398 L122.353984,23.1791692 L119.678862,23.1791692 Z M132.02251,37.8033826 C129.695775,37.8033826 128.38932,36.1097924 128.38932,33.1676429 C128.38932,30.2502174 129.695775,28.5442652 132.02251,28.5442652 C134.336801,28.5442652 135.655699,30.2502174 135.655699,33.1676429 C135.655699,36.0974304 134.336801,37.8033826 132.02251,37.8033826 L132.02251,37.8033826 Z M132.02251,40.1645193 C135.979202,40.1645193 138.405475,37.5314192 138.405475,33.1676429 C138.405475,28.8285906 135.966759,26.1831285 132.02251,26.1831285 C128.065817,26.1831285 125.627101,28.8285906 125.627101,33.1676429 C125.627101,37.5314192 128.053375,40.1645193 132.02251,40.1645193 L132.02251,40.1645193 Z M139.625592,39.9049179 L142.300714,39.9049179 L142.300714,31.9561696 C142.300714,30.0647878 143.731593,28.7915047 145.747267,28.7915047 C146.195194,28.7915047 147.016394,28.8780385 147.227916,28.9522103 L147.227916,26.3314722 C146.94174,26.2573003 146.4316,26.2202144 146.045885,26.2202144 C144.27906,26.2202144 142.785969,27.1844483 142.400253,28.5071793 L142.201175,28.5071793 L142.201175,26.4427299 L139.625592,26.4427299 L139.625592,39.9049179 Z M153.250809,28.4453695 C155.229156,28.4453695 156.523168,29.8175484 156.58538,31.9314457 L149.742045,31.9314457 C149.891354,29.8299104 151.272463,28.4453695 153.250809,28.4453695 L153.250809,28.4453695 Z M156.572938,36.270498 C156.075241,37.3212656 154.967865,37.9022784 153.350349,37.9022784 C151.210251,37.9022784 149.829142,36.4064797 149.742045,34.045343 L149.742045,33.8969993 L159.310272,33.8969993 L159.310272,32.9698514 C159.310272,28.7420568 157.033308,26.1831285 153.263252,26.1831285 C149.443426,26.1831285 147.017153,28.9151244 147.017153,33.2170908 C147.017153,37.5190572 149.393657,40.1645193 153.275694,40.1645193 C156.373859,40.1645193 158.538842,38.6810826 159.148521,36.270498 L156.572938,36.270498 Z" id="App-Store" fill="#FFFFFF"></path>
                                <path d="M57.1330249,8.14265463 L57.1330249,16.6370957 L60.2199322,16.6370957 C62.7676675,16.6370957 64.2429841,15.0771325 64.2429841,12.3633852 C64.2429841,9.69084451 62.7558176,8.14265463 60.2199322,8.14265463 L57.1330249,8.14265463 Z M58.4602173,9.34353195 L60.071808,9.34353195 C61.8433729,9.34353195 62.8920918,10.4619961 62.8920918,12.3810452 C62.8920918,14.3295275 61.8611477,15.4362184 60.071808,15.4362184 L58.4602173,15.4362184 L58.4602173,9.34353195 Z M68.9130423,15.6363646 C67.8050736,15.6363646 67.1829522,14.829893 67.1829522,13.4288695 C67.1829522,12.0396193 67.8050736,11.2272611 68.9130423,11.2272611 C70.0150859,11.2272611 70.6431323,12.0396193 70.6431323,13.4288695 C70.6431323,14.8240064 70.0150859,15.6363646 68.9130423,15.6363646 L68.9130423,15.6363646 Z M68.9130423,16.7607154 C70.7971814,16.7607154 71.9525498,15.5068582 71.9525498,13.4288695 C71.9525498,11.3626541 70.7912565,10.1029103 68.9130423,10.1029103 C67.0289031,10.1029103 65.8676097,11.3626541 65.8676097,13.4288695 C65.8676097,15.5068582 67.0229781,16.7607154 68.9130423,16.7607154 L68.9130423,16.7607154 Z M81.9373025,10.22653 L80.6634348,10.22653 L79.5139914,15.1183391 L79.413267,15.1183391 L78.0860746,10.22653 L76.8655316,10.22653 L75.5383392,15.1183391 L75.4435398,15.1183391 L74.2881714,10.22653 L72.9965288,10.22653 L74.7740186,16.6370957 L76.0834361,16.6370957 L77.4106285,11.9159995 L77.5113529,11.9159995 L78.8444702,16.6370957 L80.1657376,16.6370957 L81.9373025,10.22653 Z M83.5560032,16.6370957 L84.8298708,16.6370957 L84.8298708,12.8872974 C84.8298708,11.8865663 85.4579172,11.262581 86.4829364,11.262581 C87.4309309,11.262581 87.8930783,11.7747199 87.8930783,12.8048842 L87.8930783,16.6370957 L89.1669459,16.6370957 L89.1669459,12.4870049 C89.1669459,10.9623617 88.3552256,10.1029103 86.9154589,10.1029103 C85.9437645,10.1029103 85.1912938,10.532636 84.8772706,11.244921 L84.7824711,11.244921 L84.7824711,10.22653 L83.5560032,10.22653 L83.5560032,16.6370957 Z M91.3188936,16.6370957 L92.5927613,16.6370957 L92.5927613,7.72470223 L91.3188936,7.72470223 L91.3188936,16.6370957 Z M97.5294429,15.6363646 C96.4214743,15.6363646 95.7993529,14.829893 95.7993529,13.4288695 C95.7993529,12.0396193 96.4214743,11.2272611 97.5294429,11.2272611 C98.6314866,11.2272611 99.259533,12.0396193 99.259533,13.4288695 C99.259533,14.8240064 98.6314866,15.6363646 97.5294429,15.6363646 L97.5294429,15.6363646 Z M97.5294429,16.7607154 C99.4135821,16.7607154 100.56895,15.5068582 100.56895,13.4288695 C100.56895,11.3626541 99.4076571,10.1029103 97.5294429,10.1029103 C95.6453037,10.1029103 94.4840104,11.3626541 94.4840104,13.4288695 C94.4840104,15.5068582 95.6393788,16.7607154 97.5294429,16.7607154 L97.5294429,16.7607154 Z M104.510238,15.6775711 C103.817017,15.6775711 103.313395,15.3420319 103.313395,14.7651399 C103.313395,14.2000211 103.716292,13.8998018 104.605037,13.8409352 L106.181078,13.7408621 L106.181078,14.2765476 C106.181078,15.0712458 105.470082,15.6775711 104.510238,15.6775711 L104.510238,15.6775711 Z M104.184365,16.7430554 C105.031635,16.7430554 105.736706,16.3780829 106.121829,15.7364377 L106.222553,15.7364377 L106.222553,16.6370957 L107.449021,16.6370957 L107.449021,12.2574254 C107.449021,10.9034951 106.536576,10.1029103 104.91906,10.1029103 C103.455594,10.1029103 102.4128,10.8093087 102.282451,11.9101129 L103.514844,11.9101129 C103.657043,11.4568406 104.148815,11.1978278 104.859811,11.1978278 C105.730781,11.1978278 106.181078,11.5804603 106.181078,12.2574254 L106.181078,12.8107709 L104.433213,12.910844 C102.898647,13.0050304 102.033602,13.6702223 102.033602,14.8240064 C102.033602,15.9954504 102.940122,16.7430554 104.184365,16.7430554 L104.184365,16.7430554 Z M111.923555,16.7430554 C112.8123,16.7430554 113.564771,16.325103 113.949894,15.6245913 L114.050618,15.6245913 L114.050618,16.6370957 L115.271161,16.6370957 L115.271161,7.72470223 L113.997293,7.72470223 L113.997293,11.244921 L113.902494,11.244921 C113.552921,10.5385226 112.806375,10.1205702 111.923555,10.1205702 C110.29419,10.1205702 109.245471,11.4038607 109.245471,13.4288695 C109.245471,15.459765 110.28234,16.7430554 111.923555,16.7430554 L111.923555,16.7430554 Z M112.284978,11.2566943 C113.351472,11.2566943 114.020993,12.0984858 114.020993,13.4347562 C114.020993,14.7769132 113.357397,15.6069313 112.284978,15.6069313 C111.206634,15.6069313 110.560813,14.7886865 110.560813,13.4288695 C110.560813,12.0808258 111.212559,11.2566943 112.284978,11.2566943 L112.284978,11.2566943 Z M123.829182,15.6363646 C122.721213,15.6363646 122.099092,14.829893 122.099092,13.4288695 C122.099092,12.0396193 122.721213,11.2272611 123.829182,11.2272611 C124.931226,11.2272611 125.559272,12.0396193 125.559272,13.4288695 C125.559272,14.8240064 124.931226,15.6363646 123.829182,15.6363646 L123.829182,15.6363646 Z M123.829182,16.7607154 C125.713321,16.7607154 126.868689,15.5068582 126.868689,13.4288695 C126.868689,11.3626541 125.707396,10.1029103 123.829182,10.1029103 C121.945043,10.1029103 120.783749,11.3626541 120.783749,13.4288695 C120.783749,15.5068582 121.939118,16.7607154 123.829182,16.7607154 L123.829182,16.7607154 Z M128.700689,16.6370957 L129.974557,16.6370957 L129.974557,12.8872974 C129.974557,11.8865663 130.602603,11.262581 131.627622,11.262581 C132.575617,11.262581 133.037764,11.7747199 133.037764,12.8048842 L133.037764,16.6370957 L134.311632,16.6370957 L134.311632,12.4870049 C134.311632,10.9623617 133.499911,10.1029103 132.060145,10.1029103 C131.08845,10.1029103 130.33598,10.532636 130.021956,11.244921 L129.927157,11.244921 L129.927157,10.22653 L128.700689,10.22653 L128.700689,16.6370957 Z M140.475966,8.67245345 L140.475966,10.2559632 L139.415397,10.2559632 L139.415397,11.3214475 L140.475966,11.3214475 L140.475966,14.9417395 C140.475966,16.1779367 141.038838,16.6724156 142.454905,16.6724156 C142.703753,16.6724156 142.934827,16.6429823 143.136276,16.6076624 L143.136276,15.5539514 C142.958527,15.5716114 142.857803,15.5833847 142.662279,15.5833847 C142.028307,15.5833847 141.749834,15.289052 141.749834,14.6179735 L141.749834,11.3214475 L143.195526,11.3214475 L143.195526,10.2559632 L141.749834,10.2559632 L141.749834,8.67245345 L140.475966,8.67245345 Z M145.00975,16.6370957 L146.283618,16.6370957 L146.283618,12.893184 C146.283618,11.9218862 146.929439,11.2684677 147.972233,11.2684677 C148.932078,11.2684677 149.412,11.7864932 149.412,12.8107709 L149.412,16.6370957 L150.685868,16.6370957 L150.685868,12.4987782 C150.685868,10.974135 149.856372,10.1087969 148.404756,10.1087969 C147.433061,10.1087969 146.686516,10.5385226 146.372492,11.2566943 L146.271768,11.2566943 L146.271768,7.72470223 L145.00975,7.72470223 L145.00975,16.6370957 Z M155.43295,11.1801679 C156.37502,11.1801679 156.991216,11.8335864 157.020841,12.8402041 L153.76211,12.8402041 C153.83321,11.839473 154.490881,11.1801679 155.43295,11.1801679 L155.43295,11.1801679 Z M157.014916,14.9064195 C156.777918,15.4067851 156.250596,15.6834578 155.48035,15.6834578 C154.461256,15.6834578 153.803585,14.9711727 153.76211,13.8468219 L153.76211,13.7761821 L158.318409,13.7761821 L158.318409,13.334683 C158.318409,11.3214475 157.23414,10.1029103 155.438875,10.1029103 C153.619911,10.1029103 152.464542,11.4038607 152.464542,13.4524161 C152.464542,15.5009715 153.596211,16.7607154 155.4448,16.7607154 C156.920117,16.7607154 157.951061,16.054317 158.241384,14.9064195 L157.014916,14.9064195 Z" id="Download-on-the" fill="#FFFFFF"></path>
                                <g id="logo_apple" transform="translate(15.774629, 8.077431)" fill="#FFFFFF">
                                    <path d="M23.4606072,18.1506169 C23.4215577,13.8387914 27.0141181,11.7410743 27.1783956,11.6434127 C25.1437783,8.69617362 21.990189,8.29348685 20.8819891,8.26137894 C18.2333511,7.98444817 15.6641587,9.83600462 14.3149287,9.83600462 C12.938768,9.83600462 10.8610616,8.28813553 8.6217708,8.33362175 C5.74018188,8.37777013 3.04441504,10.0353413 1.56591755,12.6093258 C-1.48533502,17.8576321 0.790312307,25.570221 3.71364387,29.8124793 C5.17598293,31.8914668 6.88473823,34.2099259 9.12133599,34.1283182 C11.3094584,34.0400215 12.1268063,32.7423266 14.7673651,32.7423266 C17.3836863,32.7423266 18.1512123,34.1283182 20.4322458,34.074805 C22.7806061,34.0400215 24.2591036,31.9891284 25.6702742,29.8914112 C27.360178,27.5127498 28.0388326,25.1648585 28.0657634,25.0444539 C28.0119019,25.0270621 23.5063895,23.3186534 23.4606072,18.1506169" id="Fill-2"></path>
                                    <path d="M19.1516892,5.47066596 C20.3285624,4.00841798 21.1337915,2.01906506 20.9102664,0.000279884503 C19.2068972,0.0751983536 17.0766759,1.17088096 15.8499808,2.60102103 C14.7646721,3.8612567 13.7951655,5.92686592 14.0456214,7.8693948 C15.9590503,8.01120476 17.9236476,6.91017083 19.1516892,5.47066596" id="Fill-3"></path>
                                </g>
                            </g>
                        </g>
                    </g>
                </g>
            </g>
        </g>
    </g>
</svg>