<?xml version="1.0" encoding="UTF-8"?>
<svg width="177px" height="52px" viewBox="0 0 177 52" version="1.1" xmlns="http://www.w3.org/2000/svg" xmlns:xlink="http://www.w3.org/1999/xlink">
    <!-- Generator: Sketch 41.2 (35397) - http://www.bohemiancoding.com/sketch -->
    <title>Playstore</title>
    <desc>Created with Sketch.</desc>
    <defs>
        <linearGradient x1="50%" y1="0%" x2="50%" y2="38.9125982%" id="linearGradient-1">
            <stop stop-color="#FBDA09" offset="0%"></stop>
            <stop stop-color="#FFBC00" offset="100%"></stop>
        </linearGradient>
        <path d="M13.8319467,3.5169962 C14.6190274,2.13777342 15.8928441,2.13372245 16.6822594,3.5169962 L31.9943562,30.348018 C32.7814597,31.7272408 32.1267295,32.8453218 30.5388583,32.8453218 L-0.024166054,32.8453218 C-1.6151189,32.8453218 -2.26909781,31.7312918 -1.47970534,30.348018 L13.8319467,3.5169962 Z" id="path-2"></path>
        <linearGradient x1="0%" y1="58.4755255%" x2="69.3064856%" y2="39.0830098%" id="linearGradient-4">
            <stop stop-color="#01E2FF" offset="0%"></stop>
            <stop stop-color="#01C4FF" offset="100%"></stop>
        </linearGradient>
        <linearGradient x1="20.2810876%" y1="20.1019903%" x2="83.820166%" y2="83.6214476%" id="linearGradient-5">
            <stop stop-color="#28D781" offset="0%"></stop>
            <stop stop-color="#02F076" offset="100%"></stop>
        </linearGradient>
        <linearGradient x1="74.4881466%" y1="17.4301299%" x2="10.1079427%" y2="91.1838038%" id="linearGradient-6">
            <stop stop-color="#F2414E" offset="0%"></stop>
            <stop stop-color="#E02554" offset="100%"></stop>
        </linearGradient>
    </defs>
    <g id="Symbols" stroke="none" stroke-width="1" fill="none" fill-rule="evenodd">
        <g id="Download" transform="translate(-1044.000000, -100.000000)">
            <g transform="translate(0.000000, 1.000000)" id="download">
                <g>
                    <g id="Group-3" transform="translate(219.000000, 90.000000)">
                        <g id="Badges" transform="translate(632.000000, 9.000000)">
                            <g id="Playstore" transform="translate(193.809524, 0.000000)">
                                <rect id="background" fill="#000000" x="0" y="0" width="176.190476" height="51.8658471" rx="4.57142857"></rect>
                                <g id="get-it-on" transform="translate(54.030166, 8.738859)" fill="#FFFFFF">
                                    <path d="M39.3377526,8.5026738 C41.693545,8.5026738 43.603292,6.59928543 43.603292,4.2513369 C43.603292,1.90338836 41.693545,0 39.3377526,0 C36.9819602,0 35.0722131,1.90338836 35.0722131,4.2513369 C35.0722131,6.59928543 36.9819602,8.5026738 39.3377526,8.5026738 Z M39.3377526,7.20365419 C40.9737195,7.20365419 42.2999328,5.88185671 42.2999328,4.2513369 C42.2999328,2.62081708 40.9737195,1.29901961 39.3377526,1.29901961 C37.7017857,1.29901961 36.3755724,2.62081708 36.3755724,4.2513369 C36.3755724,5.88185671 37.7017857,7.20365419 39.3377526,7.20365419 Z" id="o"></path>
                                    <path d="M10.4268742,4.72370766 L10.4268742,7.32174688 L13.8630032,7.32174688 L13.8630032,8.26648841 L9.12351491,8.26648841 L9.12351491,7.79411765 L9.12351491,0.885695187 L9.12351491,0.354278075 L13.8630032,0.354278075 L13.8630032,1.29901961 L10.4268742,1.29901961 L10.4268742,3.77896613 L13.5075416,3.77896613 L13.5075416,4.72370766 L10.4268742,4.72370766 Z" id="e"></path>
                                    <path d="M18.4840042,1.29901961 L18.4840042,8.26648841 L17.180645,8.26648841 L17.180645,1.29901961 L15.1663624,1.29901961 L15.1663624,0.354278075 L20.4982867,0.354278075 L20.4982867,1.29901961 L18.4840042,1.29901961 Z" id="t"></path>
                                    <path d="M30.0957505,1.29901961 L30.0957505,8.26648841 L28.7923912,8.26648841 L28.7923912,1.29901961 L26.7781087,1.29901961 L26.7781087,0.354278075 L32.110033,0.354278075 L32.110033,1.29901961 L30.0957505,1.29901961 Z" id="t"></path>
                                    <rect id="i" x="24.2898773" y="0.354278075" width="1.30335927" height="7.91221034"></rect>
                                    <path d="M45.4398437,0.354278075 L44.6696769,0.354278075 L44.6696769,8.26648841 L45.9730362,8.26648841 L45.9730362,2.09110473 L49.7646268,8.26648841 L50.4163064,8.26648841 L51.067986,8.26648841 L51.067986,0.354278075 L49.7646268,0.354278075 L49.7646268,6.14370027 L46.2100106,0.354278075 L45.4398437,0.354278075 Z" id="n"></path>
                                    <g id="g" transform="translate(0.000000, 0.118093)">
                                        <polygon id="Rectangle-1" points="4.23985873 3.79905503 7.8084065 3.79905503 7.77307434 4.92470097 4.23985873 4.92470097"></polygon>
                                        <path d="M8.10641308,3.79905503 C8.10653134,3.81297369 8.10659058,3.82692066 8.10659058,3.84089575 C8.4986947,6.70736302 6.53782904,8.35790733 4.1868605,8.33681521 C1.87452352,8.33351422 0,6.47055556 0,4.1684076 C0,1.86625965 1.8745213,0 4.1868605,0 C5.39553139,0 6.41159605,0.420417209 7.10617342,1.15052144 L6.28958976,1.96350614 C5.78026202,1.44504694 5.05686474,1.16082237 4.22219266,1.16082237 C2.55379602,1.16082237 1.20129331,2.50736415 1.20129331,4.1684076 C1.20129331,5.82945106 2.55379602,7.17599284 4.22219266,7.17599284 C5.8905893,7.17599284 7.07512625,6.21571737 7.07264195,4.1684076 C7.07546373,4.0418852 7.07250436,3.91872659 7.06401731,3.79905503 L8.10641308,3.79905503 Z" id="Oval-1"></path>
                                    </g>
                                </g>
                                <g id="googleplay" transform="translate(53.437730, 22.673797)" fill="#FFFFFF">
                                    <g id="big-P" transform="translate(73.936017, 0.590463)">
                                        <path d="M0.592436033,4.15053507e-07 L7.30981863,0 C7.30981863,0 11.1768306,0.655737348 11.1768303,5.08150474 C11.17683,9.50727214 7.30981863,10.1630095 7.30981863,10.1630095 L0.592436033,10.1630099 L0.592436033,4.15053507e-07 Z M1.89579531,2.45832526 L6.4558828,2.45832526 C6.4558828,2.45832526 8.53107887,2.45832526 8.53107887,5.1852678 C8.53107887,7.91221034 6.4558828,7.91221034 6.4558828,7.91221034 L1.89579531,7.91221034 L1.89579531,2.45832526 Z" id="Combined-Shape"></path>
                                        <rect id="Rectangle-6" x="0" y="0" width="2.36974413" height="16.5329768"></rect>
                                    </g>
                                    <rect id="y" x="86.4956608" y="0.590463458" width="2.36974413" height="16.5329768"></rect>
                                    <path d="M97.6486268,15.9413482 L97.6486268,17.1181353 L100.018371,17.1181353 L100.018371,9.94177392 C100.018535,9.93718949 100.018617,9.93257522 100.018617,9.92793092 C100.018617,8.97379041 99.3170408,6.14081997 95.1960342,6.14081996 C91.8817374,6.14081996 90.7771788,8.41029856 90.7771788,8.41029856 L92.7510785,9.57300414 C92.7510785,9.57300414 93.2275833,8.41029856 95.3853361,8.41029856 C96.9559228,8.41029856 97.4798084,9.59240676 97.6486268,10.2357554 L97.6486268,10.7215233 C96.960211,10.3880486 95.4706103,9.8628433 93.3438038,10.1780562 C90.3402573,10.6232103 90.5264928,13.4237026 90.5264928,13.6552747 C90.5264928,13.8868469 90.52846,17.3208767 94.304256,17.0858444 C95.9523945,16.9832525 96.9959157,16.4780897 97.6486268,15.9413482 Z M97.4793429,12.4000786 C97.4793429,12.4000786 92.9139984,11.1736561 92.7553019,13.7298323 C92.5966054,16.2860085 97.1351052,15.0586057 97.5406114,13.2465633 C97.5406113,12.6703425 97.4793429,12.4000786 97.4793429,12.4000786 Z" id="a"></path>
                                    <path d="M104.465034,16.4961816 L102.254459,21.7290553 L104.624203,21.7290553 L111.035472,6.55229919 L108.665728,6.55229919 L105.649906,13.6913523 L102.609921,6.49509804 L100.240177,6.49509804 L104.465034,16.4961816 Z" id="y"></path>
                                    <path d="M68.6307934,10.3597589 C68.6307934,10.3597589 67.5917831,6.14081996 63.6187878,6.14081996 C59.6457924,6.14081996 58.2957056,9.7066972 58.2957056,11.8125925 C58.2957056,13.9983233 59.9966178,17.3639221 63.858432,17.3639221 C67.0010256,17.3639221 68.5354541,14.8905461 68.5354541,14.8905461 L66.6339265,13.6070629 C66.6339265,13.6070629 65.6378755,15.1747645 63.8734097,15.1658032 C61.6200486,15.154359 61.1360077,13.4468781 61.1360077,13.4468781 L68.6307934,10.3597589 Z M65.7791859,9.48522305 C65.7791859,9.48522305 64.8362378,8.05532782 63.3900889,8.31903209 C60.3310251,8.87685032 60.7159823,11.5449257 60.7159823,11.5449257 L65.7791859,9.48522305 Z" id="e"></path>
                                    <rect id="i" x="54.7410894" y="0.590463458" width="2.5070469" height="16.4982437"></rect>
                                    <path d="M50.7291003,6.49938041 L50.7291003,7.52896528 C50.7291003,7.52896528 49.7216301,6.08382986 47.6256072,6.14256293 C45.0088194,6.21588846 42.2999328,8.23169599 42.2999328,11.7559042 C42.2999328,15.2801123 45.1767431,17.347337 47.5975959,17.3473337 C49.8304346,17.3473306 50.7293883,15.9450546 50.7293883,15.9450546 L50.7293883,17.0747683 C50.7293883,17.8811636 50.4260886,20.2369579 47.828023,20.2369609 C45.5465787,20.2369637 44.8974223,18.2013183 44.8974223,18.2013183 L42.7689959,19.0934694 C42.7689959,19.0934694 43.97701,22.3964837 47.717418,22.3964837 C51.457826,22.3964837 53.0466209,19.588918 53.0466209,16.9292206 L53.0466209,6.51933463 L50.7291003,6.49938041 Z M47.7954752,15.2319208 C49.4855063,15.2319208 50.8555471,13.6889599 50.8555471,11.7856211 C50.8555471,9.88228223 49.4855063,8.33932126 47.7954752,8.33932126 C46.1054441,8.33932126 44.7354032,9.88228223 44.7354032,11.7856211 C44.7354032,13.6889599 46.1054441,15.2319208 47.7954752,15.2319208 Z" id="g"></path>
                                    <path d="M35.6181188,17.3596257 C38.7334773,17.3596257 41.2589743,14.8482105 41.2589743,11.7502228 C41.2589743,8.65223517 38.7334773,6.14081996 35.6181188,6.14081996 C32.5027603,6.14081996 29.9772633,8.65223517 29.9772633,11.7502228 C29.9772633,14.8482105 32.5027603,17.3596257 35.6181188,17.3596257 Z M35.5812505,15.1598598 C37.332367,15.1598598 38.7519274,13.6333133 38.7519274,11.7502228 C38.7519274,9.86713228 37.332367,8.34058579 35.5812505,8.34058579 C33.8301339,8.34058579 32.4105735,9.86713228 32.4105735,11.7502228 C32.4105735,13.6333133 33.8301339,15.1598598 35.5812505,15.1598598 Z" id="o"></path>
                                    <path d="M23.4139365,17.3596257 C26.529295,17.3596257 29.0547921,14.8482105 29.0547921,11.7502228 C29.0547921,8.65223517 26.529295,6.14081996 23.4139365,6.14081996 C20.298578,6.14081996 17.773081,8.65223517 17.773081,11.7502228 C17.773081,14.8482105 20.298578,17.3596257 23.4139365,17.3596257 Z M23.3770682,15.1598598 C25.1281847,15.1598598 26.5477451,13.6333133 26.5477451,11.7502228 C26.5477451,9.86713228 25.1281847,8.34058579 23.3770682,8.34058579 C21.6259516,8.34058579 20.2063912,9.86713228 20.2063912,11.7502228 C20.2063912,13.6333133 21.6259516,15.1598598 23.3770682,15.1598598 Z" id="o"></path>
                                    <g id="big-g">
                                        <polygon id="Rectangle-1" points="8.84840084 7.91915697 16.2958049 7.91915697 16.2220682 10.2655738 8.84840084 10.2655738"></polygon>
                                        <path d="M16.9177316,7.91915697 C16.9179785,7.94817051 16.9181021,7.97724306 16.9181021,8.00637425 C17.7364063,13.9815455 13.644165,17.4221167 8.73779582,17.37815 C3.91204909,17.3712691 0,13.4879186 0,8.68907501 C0,3.89023139 3.91204444,0 8.73779582,0 C11.2602394,0 13.3807222,0.876362633 14.830275,2.39827004 L13.1261004,4.09294238 C12.0631555,3.01221051 10.5534568,2.41974241 8.8115325,2.41974241 C5.32966125,2.41974241 2.5070469,5.22661822 2.5070469,8.68907501 C2.5070469,12.1515318 5.32966125,14.9584076 8.8115325,14.9584076 C12.2934037,14.9584076 14.7654809,12.9567066 14.7602962,8.68907501 C14.7661852,8.42533816 14.7600091,8.16861317 14.742297,7.91915697 L16.9177316,7.91915697 Z" id="Oval-1"></path>
                                    </g>
                                </g>
                                <g id="logo_play" transform="translate(12.915106, 8.211230)">
                                    <mask id="mask-3" fill="white">
                                        <use xlink:href="#path-2"></use>
                                    </mask>
                                    <use id="yellow" fill="url(#linearGradient-1)" transform="translate(15.256556, 17.663191) rotate(-270.000000) translate(-15.256556, -17.663191) " xlink:href="#path-2"></use>
                                    <polygon id="blue" fill="url(#linearGradient-4)" mask="url(#mask-3)" points="1.53765889e-14 0.988354748 16.5629527 17.3956044 -0.213935234 34.4513489"></polygon>
                                    <polygon id="green" fill="url(#linearGradient-5)" mask="url(#mask-3)" points="-3.40595864 -2.38931407 16.560987 17.4004035 22.4973926 11.7560274"></polygon>
                                    <polygon id="red" fill="url(#linearGradient-6)" mask="url(#mask-3)" points="16.5637069 17.3966279 25.6517488 26.5264482 -1.49791234 35.6562686"></polygon>
                                </g>
                            </g>
                        </g>
                    </g>
                </g>
            </g>
        </g>
    </g>
</svg>