<?xml version="1.0" encoding="UTF-8"?>
<svg width="23px" height="23px" viewBox="0 0 23 23" version="1.1" xmlns="http://www.w3.org/2000/svg" xmlns:xlink="http://www.w3.org/1999/xlink">
    <!-- Generator: Sketch 41.2 (35397) - http://www.bohemiancoding.com/sketch -->
    <title></title>
    <desc>Created with Sketch.</desc>
    <defs></defs>
    <g id="Symbols" stroke="none" stroke-width="1" fill="none" fill-rule="evenodd">
        <g id="Categories-nav" transform="translate(-1294.000000, -16.000000)" fill="#3893D9">
            <g id="Group-3" transform="translate(1053.000000, 0.000000)">
                <path d="M256.428571,25.4285714 C256.428571,23.7767775 255.841524,22.3638452 254.667411,21.1897321 C253.493298,20.0156191 252.080365,19.4285714 250.428571,19.4285714 C248.776777,19.4285714 247.363845,20.0156191 246.189732,21.1897321 C245.015619,22.3638452 244.428571,23.7767775 244.428571,25.4285714 C244.428571,27.0803654 245.015619,28.4932977 246.189732,29.6674107 C247.363845,30.8415237 248.776777,31.4285714 250.428571,31.4285714 C252.080365,31.4285714 253.493298,30.8415237 254.667411,29.6674107 C255.841524,28.4932977 256.428571,27.0803654 256.428571,25.4285714 L256.428571,25.4285714 Z M263.285714,36.5714286 C263.285714,37.0357166 263.116073,37.4374983 262.776786,37.7767857 C262.437498,38.1160731 262.035717,38.2857143 261.571429,38.2857143 C261.089283,38.2857143 260.687502,38.1160731 260.366071,37.7767857 L255.772321,33.1964286 C254.174099,34.303577 252.392867,34.8571429 250.428571,34.8571429 C249.151779,34.8571429 247.930809,34.6093775 246.765625,34.1138393 C245.600441,33.6183011 244.595986,32.9486649 243.752232,32.1049107 C242.908478,31.2611565 242.238842,30.2567023 241.743304,29.0915179 C241.247765,27.9263335 241,26.7053635 241,25.4285714 C241,24.1517793 241.247765,22.9308094 241.743304,21.765625 C242.238842,20.6004406 242.908478,19.5959864 243.752232,18.7522321 C244.595986,17.9084779 245.600441,17.2388418 246.765625,16.7433036 C247.930809,16.2477654 249.151779,16 250.428571,16 C251.705364,16 252.926333,16.2477654 254.091518,16.7433036 C255.256702,17.2388418 256.261156,17.9084779 257.104911,18.7522321 C257.948665,19.5959864 258.618301,20.6004406 259.113839,21.765625 C259.609377,22.9308094 259.857143,24.1517793 259.857143,25.4285714 C259.857143,27.392867 259.303577,29.1740992 258.196429,30.7723214 L262.790179,35.3660714 C263.120537,35.6964302 263.285714,36.0982119 263.285714,36.5714286 L263.285714,36.5714286 Z" id=""></path>
            </g>
        </g>
    </g>
</svg>