<?xml version="1.0" encoding="UTF-8"?>
<svg width="12px" height="6px" viewBox="0 0 12 6" version="1.1" xmlns="http://www.w3.org/2000/svg" xmlns:xlink="http://www.w3.org/1999/xlink">
    <!-- Generator: Sketch 42 (36781) - http://www.bohemiancoding.com/sketch -->
    <title>Icon</title>
    <desc>Created with Sketch.</desc>
    <defs></defs>
    <g id="Symbols" stroke="none" stroke-width="1" fill="none" fill-rule="evenodd">
        <g id="Categories-nav" transform="translate(-327.000000, -25.000000)" fill="#3E4246">
            <g id="Group-2" transform="translate(34.000000, 18.000000)">
                <g id="Group" transform="translate(150.000000, 0.000000)">
                    <path d="M146.184029,10.4958824 C145.938657,10.222 145.938657,9.778 146.184029,9.50411765 L151.020092,4.10270588 C151.14262,3.96576471 151.34157,3.96576471 151.464098,4.10270588 L151.908104,4.59858824 C152.030632,4.73552941 152.030632,4.95752941 151.908104,5.09447059 L147.737733,9.75188235 C147.615205,9.88882353 147.615205,10.1111765 147.737733,10.2477647 L151.908104,14.9055294 C152.030632,15.0424706 152.030632,15.2644706 151.908104,15.4014118 L151.464098,15.8972941 C151.34157,16.0342353 151.14262,16.0342353 151.020092,15.8972941 L146.184029,10.4958824 Z" id="Icon" transform="translate(149.000000, 10.000000) scale(-1, 1) rotate(-90.000000) translate(-149.000000, -10.000000) "></path>
                </g>
            </g>
        </g>
    </g>
</svg>