<?xml version="1.0" encoding="UTF-8"?>
<svg width="141px" height="118px" viewBox="0 0 141 118" version="1.1" xmlns="http://www.w3.org/2000/svg" xmlns:xlink="http://www.w3.org/1999/xlink">
    <!-- Generator: Sketch 42 (36781) - http://www.bohemiancoding.com/sketch -->
    <title>Mail icon</title>
    <desc>Created with Sketch.</desc>
    <defs>
        <polygon id="path-1" points="5.89785904e-20 0.583839706 5.89785904e-20 6.87428088 140.782146 6.87428088 140.782146 0.583839706 0 0.583839706"></polygon>
        <path d="M0.580537037,11.1440588 L3.07066667,11.1440588 C3.337,6.71905882 6.8472037,3.16344118 11.2356111,2.85455882 L11.2356111,0.347058824 C5.47462963,0.662882353 0.851222222,5.34036765 0.580537037,11.1440588 L0.580537037,11.1440588 Z" id="path-3"></path>
        <path d="M0.580537037,11.1440588 L3.07066667,11.1440588 C3.337,6.71992647 6.8472037,3.16344118 11.2364815,2.85542647 L11.2364815,0.347058824 C5.4755,0.662882353 0.851222222,5.34036765 0.580537037,11.1440588 L0.580537037,11.1440588 Z" id="path-5"></path>
        <path d="M0.825981481,2.85455882 C5.21525926,3.16344118 8.72546296,6.71992647 8.99005556,11.1440588 L11.4810556,11.1440588 C11.2103704,5.34123529 6.58609259,0.662882353 0.825981481,0.347058824 L0.825981481,2.85455882 L0.825981481,2.85455882 Z" id="path-7"></path>
        <path d="M0.825981481,2.85542647 C5.21525926,3.16344118 8.72546296,6.71992647 8.99005556,11.1440588 L11.4819259,11.1440588 C11.2112407,5.34123529 6.58609259,0.662882353 0.825981481,0.347058824 L0.825981481,2.85542647 L0.825981481,2.85542647 Z" id="path-9"></path>
        <path d="M11.5123889,0.795632353 C11.3783519,2.64805882 10.6985926,4.14822059 9.33037037,6.01105882 C8.45477778,7.20407353 6.16135185,10.0221912 4.28483333,12.3639706 L4.28222222,12.3674412 C3.57635185,13.2489706 2.92531481,14.0602206 2.42311111,14.6840588 L0.772888889,16.7395147 C1.13757407,17.1924265 1.37431481,17.4865588 1.42044444,17.5446912 L2.42311111,18.7897647 L3.42490741,17.5446912 C3.68166667,17.2262647 9.76555556,9.79052941 11.3705185,7.57976471 C13.0720926,5.23711765 13.9572593,3.24066176 14.0921667,0.795632353 L11.5123889,0.795632353 L11.5123889,0.795632353 Z" id="path-11"></path>
        <path d="M11.5123889,0.795632353 C11.3783519,2.64892647 10.6985926,4.14908824 9.33124074,6.01105882 C8.45477778,7.20407353 6.16135185,10.0221912 4.28396296,12.3639706 L4.28222222,12.3674412 C3.57635185,13.2489706 2.92531481,14.0602206 2.42311111,14.6840588 L0.772888889,16.7395147 C1.13844444,17.1924265 1.37431481,17.4874265 1.42131481,17.5446912 L2.42311111,18.7897647 L3.42490741,17.5446912 C3.6807963,17.2262647 9.76555556,9.79052941 11.3705185,7.57976471 C13.0720926,5.23711765 13.9572593,3.24066176 14.093037,0.795632353 L11.5123889,0.795632353 L11.5123889,0.795632353 Z" id="path-13"></path>
    </defs>
    <g id="Symbols" stroke="none" stroke-width="1" fill="none" fill-rule="evenodd">
        <g id="subscribe---horizontal" transform="translate(-13.000000, -11.000000)">
            <g id="Mail-icon" transform="translate(13.000000, 11.000000)">
                <g id="Group-38" transform="translate(0.000000, 0.642059)">
                    <path d="M84.0629815,117.056087 L84.0629815,116.20666 C86.1422963,116.20666 88.2694815,116.053087 90.3862222,115.74941 L90.5063333,116.59016 C88.3512963,116.899043 86.1832037,117.056087 84.0629815,117.056087" id="Fill-7" fill="#0077BC"></path>
                    <path d="M84.0632426,116.631634 C81.6940944,116.631634 79.3693352,116.441619 77.1002796,116.085884" id="Fill-9" fill="#1A95D4"></path>
                    <path d="M84.0629815,117.056087 C81.7295185,117.056087 79.3647222,116.87041 77.0338704,116.505131 L77.167037,115.666116 C79.4535,116.025322 81.7739074,116.20666 84.0629815,116.20666 L84.0629815,117.056087 Z" id="Fill-11" fill="#0077BC"></path>
                    <path d="M77.1002796,57.0529132 L77.1002796,115.547075 L77.1002796,116.085884 C79.3693352,116.441619 81.6940944,116.631634 84.0632426,116.631634 C86.2313352,116.631634 88.3611315,116.468516 90.4456685,116.169178 L90.4456685,115.628634 L90.4456685,57.0529132 L77.1002796,57.0529132 Z" id="Fill-13" fill="#1A95D4"></path>
                    <path d="M77.5356389,115.713143 C81.6603241,116.325701 85.8119907,116.35954 90.0106574,115.792966 L90.0106574,57.4870838 L77.5356389,57.4870838 L77.5356389,115.713143 Z M84.0634167,117.065804 C81.7290833,117.065804 79.3634167,116.880128 77.0325648,116.514849 L76.6652685,116.456716 L76.6652685,56.6194368 L90.8810278,56.6194368 L90.8810278,116.546084 L90.5085093,116.59901 C88.3517315,116.90876 86.1836389,117.065804 84.0634167,117.065804 L84.0634167,117.065804 Z" id="Fill-15" fill="#0077BC"></path>
                    <polygon id="Fill-17" fill-opacity="0.1" fill="#000000" points="77.1002796 85.6852662 90.4456685 79.0330162 90.4456685 69.6702368 76.8104463 70.9352662"></polygon>
                    <path d="M125.405835,8.75403824 L52.2947241,8.75403824 L52.2947241,67.7540382 L140.347483,67.7540382 L140.347483,33.0481559 C140.347483,33.0481559 140.491965,20.7562 125.405835,8.75403824" id="Fill-19" fill="#A3D5EE"></path>
                    <path d="M52.7300833,67.3205618 L139.912472,67.3205618 L139.912472,33.0485029 C139.912472,32.9226941 139.858509,20.8719441 125.252824,9.18820882 L52.7300833,9.18820882 L52.7300833,67.3205618 Z M140.782843,68.1882088 L51.859713,68.1882088 L51.859713,8.32056176 L125.557454,8.32056176 L125.676694,8.41513529 C140.756731,20.4120912 140.788065,32.5426647 140.782843,33.0528412 L140.782843,68.1882088 Z" id="Fill-21" fill="#1A95D4"></path>
                    <path d="M135.85028,10.0555088 C135.85028,15.2466412 131.628983,19.4547294 126.421557,19.4547294 C121.214131,19.4547294 116.991965,15.2466412 116.991965,10.0555088 C116.991965,4.86437647 121.214131,0.656288235 126.421557,0.656288235 C131.628983,0.656288235 135.85028,4.86437647 135.85028,10.0555088" id="Fill-23" fill="#FB8CB0"></path>
                    <path d="M126.421296,1.090025 C121.462796,1.090025 117.427759,5.11156912 117.427759,10.0554221 C117.427759,14.999275 121.462796,19.0216868 126.421296,19.0216868 C131.379796,19.0216868 135.414833,14.999275 135.414833,10.0554221 C135.414833,5.11156912 131.379796,1.090025 126.421296,1.090025 M126.421296,19.8893338 C120.982352,19.8893338 116.557389,15.4782162 116.557389,10.0554221 C116.557389,4.63349559 120.982352,0.222377941 126.421296,0.222377941 C131.860241,0.222377941 136.285204,4.63349559 136.285204,10.0554221 C136.285204,15.4782162 131.860241,19.8893338 126.421296,19.8893338" id="Fill-25" fill="#FA6F9C"></path>
                    <path d="M79.5819667,33.7713397 C78.7203,19.8117662 67.0956333,8.75447206 52.8746519,8.75447206 C38.6545407,8.75447206 27.0298741,19.8117662 26.1682074,33.7713397 L26.110763,33.7713397 L26.110763,66.9588397 L79.6385407,66.9588397 L79.6385407,33.7713397 L79.5819667,33.7713397 Z" id="Fill-27" fill="#76BFE5"></path>
                    <path d="M26.5462963,66.5250162 L79.2037037,66.5250162 L79.2037037,34.0767515 L79.148,33.7982368 C78.2959074,19.9974426 66.7556667,9.18829559 52.875,9.18829559 C38.9943333,9.18829559 27.4540926,19.9974426 26.602,33.7982368 L26.5462963,34.2051632 L26.5462963,66.5250162 Z M80.0740741,67.3926632 L25.6759259,67.3926632 L25.6759259,33.3375162 L25.7620926,33.3375162 C26.8413519,19.2755603 38.6722963,8.32064853 52.875,8.32064853 C67.0777037,8.32064853 78.9086481,19.2755603 79.9879074,33.3375162 L80.0175,33.3375162 L80.0740741,33.7713397 L80.0740741,67.3926632 Z" id="Fill-29" fill="#1A95D4"></path>
                    <path d="M140.347222,71.5139868 L140.347222,72.3816338 L1.30033333,72.3816338 C0.8225,72.3816338 0.435185185,71.9929279 0.435185185,71.5139868 L0.435185185,67.8264868 C0.435185185,67.3475456 0.8225,66.9588397 1.30033333,66.9588397 L139.482074,66.9588397 L140.347222,66.9588397 L140.347222,71.5139868 Z" id="Fill-31" fill="#1A95D4"></path>
                    <g id="Group-35" transform="translate(0.000000, 65.941176)">
                        <mask id="mask-2" fill="white">
                            <use xlink:href="#path-1"></use>
                        </mask>
                        <g id="Clip-34"></g>
                        <path d="M1.30007222,1.45148676 C1.06333148,1.45148676 0.870109259,1.64670735 0.870109259,1.88531029 L0.870109259,5.57281029 C0.870109259,5.81141324 1.06333148,6.00663382 1.30007222,6.00663382 L139.911776,6.00663382 L139.911776,1.45148676 L1.30007222,1.45148676 Z M140.782146,6.87428088 L1.30007222,6.87428088 C0.582887037,6.87428088 -0.000261111111,6.29035441 -0.000261111111,5.57281029 L-0.000261111111,1.88531029 C-0.000261111111,1.16776618 0.582887037,0.583839706 1.30007222,0.583839706 L140.782146,0.583839706 L140.782146,6.87428088 Z" id="Fill-33" fill="#0077BC" mask="url(#mask-2)"></path>
                    </g>
                    <text id="3" font-family="AvenirNext-DemiBold, Avenir Next" font-size="12" font-weight="500" fill="#FFFFFF">
                        <tspan x="122.939815" y="13.6297794">3</tspan>
                    </text>
                    <path d="M106.976178,27.1483294 L106.976178,24.6416971 C101.216067,24.9575206 96.5917889,29.6341382 96.3211037,35.4378294 L98.8112333,35.4378294 C99.0766963,31.0136971 102.58777,27.4572118 106.976178,27.1483294" id="Fill-37" fill="#FFFFFF"></path>
                </g>
                <g id="Group-41" transform="translate(95.740741, 24.936176)">
                    <mask id="mask-4" fill="white">
                        <use xlink:href="#path-3"></use>
                    </mask>
                    <g id="Clip-40"></g>
                </g>
                <g id="Group-44" transform="translate(95.740741, 24.936176)">
                    <mask id="mask-6" fill="white">
                        <use xlink:href="#path-5"></use>
                    </mask>
                    <g id="Clip-43"></g>
                </g>
                <path d="M116.916678,36.0796279 L119.406807,36.0796279 C119.136122,30.2768044 114.511844,25.5993191 108.751733,25.2834956 L108.751733,27.7901279 C113.140141,28.0998779 116.651215,31.6554956 116.916678,36.0796279" id="Fill-45" fill="#FFFFFF"></path>
                <g id="Group-49" transform="translate(107.925926, 24.936176)">
                    <mask id="mask-8" fill="white">
                        <use xlink:href="#path-7"></use>
                    </mask>
                    <g id="Clip-48"></g>
                </g>
                <g id="Group-52" transform="translate(107.925926, 24.936176)">
                    <mask id="mask-10" fill="white">
                        <use xlink:href="#path-9"></use>
                    </mask>
                    <g id="Clip-51"></g>
                </g>
                <path d="M108.026889,48.4033397 C109.833778,46.0988691 112.836556,42.3324132 113.285667,41.6677956 C113.958463,40.6734721 114.860167,39.3693985 114.957648,37.3764132 C114.963741,37.2506044 114.967222,37.1247956 114.967222,36.9972515 C114.967222,33.0190897 111.794722,29.7818985 107.895463,29.7818985 C103.996204,29.7818985 100.823704,33.0190897 100.823704,36.9972515 C100.823704,37.1247956 100.827185,37.2506044 100.833278,37.3764132 C100.930759,39.3693985 101.782852,40.8010162 102.50613,41.6686632 L102.552259,41.7241926 C103.401741,42.7150456 104.509722,43.4690309 105.767407,43.876825 L107.34887,41.8526044 L105.952796,41.1593544 C104.367852,40.2465897 103.47137,38.9694132 103.383463,37.239325 C103.379111,37.1603691 103.3765,37.0796779 103.3765,36.9972515 C103.3765,34.4550456 105.403593,32.386575 107.895463,32.386575 C110.387333,32.386575 112.414426,34.4550456 112.414426,36.9972515 C112.414426,37.0796779 112.411815,37.1603691 112.408333,37.239325 C112.355241,38.2761632 112.039296,38.9824279 111.348222,39.968075 C110.657148,40.9537221 104.991907,48.1040015 104.991907,48.1040015 C103.405222,46.0789132 101.755,44.0035015 101.043907,43.0195897 C99.7113704,41.1758397 99.0115926,39.6149426 98.8801667,37.7390897 L96.3212778,37.7390897 C96.4553148,40.2144868 97.3500556,42.2777515 99.0202963,44.6082515 C100.066481,46.0658985 103.02487,49.7698838 104.993648,52.2730456 L106.627333,50.1889574 L108.026889,48.4033397 Z" id="Fill-53" fill="#FFFFFF"></path>
                <path d="M114.645794,43.0940338 C113.770202,44.2870485 111.475906,47.1060338 109.599387,49.4478132 L109.597646,49.4495485 C108.890906,50.3310779 108.239869,51.1423279 107.737665,51.7670338 L106.088313,53.8224897 C106.452998,54.2762691 106.688869,54.5695338 106.734998,54.6267985 L107.737665,55.8727397 L108.740331,54.6267985 C108.99622,54.3092397 115.080109,46.8726368 116.685072,44.6636074 C118.387517,42.3200926 119.271813,40.3236368 119.407591,37.8786074 L116.826943,37.8786074 C116.693776,39.7310338 116.013146,41.2311956 114.645794,43.0940338" id="Fill-61" fill="#FFFFFF"></path>
                <g id="Group-65" transform="translate(105.314815, 37.083235)">
                    <mask id="mask-12" fill="white">
                        <use xlink:href="#path-11"></use>
                    </mask>
                    <g id="Clip-64"></g>
                </g>
                <g id="Group-68" transform="translate(105.314815, 37.083235)">
                    <mask id="mask-14" fill="white">
                        <use xlink:href="#path-13"></use>
                    </mask>
                    <g id="Clip-67"></g>
                </g>
                <path d="M79.2309463,67.1941456 L78.3605759,67.1941456 L45.721687,67.1941456 C45.2412426,67.1941456 44.8513167,66.8054397 44.8513167,66.3264985 L44.8513167,35.5250279 C44.8513167,35.0460868 45.2412426,34.6573809 45.721687,34.6573809 L79.2309463,34.6573809 L79.2309463,35.5250279 L79.2309463,67.1941456 L79.2309463,67.1941456 Z" id="Fill-69" fill="#FFFFFF"></path>
                <polygon id="Fill-71" fill="#A0A0A0" points="59.2939815 50.7903235 79.2306852 50.7903235 79.2306852 49.4784412 59.2939815 49.4784412"></polygon>
                <polygon id="Fill-73" fill="#A0A0A0" points="59.2939815 54.9385441 79.2306852 54.9385441 79.2306852 53.5286176 59.2939815 53.5286176"></polygon>
                <polygon id="Fill-74" fill="#A0A0A0" points="59.2939815 58.3006765 79.2306852 58.3006765 79.2306852 56.9887941 59.2939815 56.9887941"></polygon>
                <polygon id="Fill-75" fill="#A0A0A0" points="51.3518519 42.5511471 62.0408704 42.5511471 62.0408704 41.2392647 51.3518519 41.2392647"></polygon>
                <polygon id="Fill-76" fill-opacity="0.1" fill="#000000" points="78.3605759 67.1941456 62.0411315 67.1941456 67.2363722 34.6573809 79.2309463 34.6573809 79.2309463 67.1941456"></polygon>
            </g>
        </g>
    </g>
</svg>