<?xml version="1.0" encoding="UTF-8"?>
<svg width="162px" height="135px" viewBox="0 0 162 135" version="1.1" xmlns="http://www.w3.org/2000/svg" xmlns:xlink="http://www.w3.org/1999/xlink">
    <!-- Generator: Sketch 41.2 (35397) - http://www.bohemiancoding.com/sketch -->
    <title>Subscribe - Mail icon</title>
    <desc>Created with Sketch.</desc>
    <defs>
        <polygon id="path-1" points="6.77626358e-20 0.6729 6.77626358e-20 7.9229 161.7497 7.9229 161.7497 0.6729 0 0.6729"></polygon>
        <path d="M0.667,12.844 L3.528,12.844 C3.834,7.744 7.867,3.646 12.909,3.29 L12.909,0.4 C6.29,0.764 0.978,6.155 0.667,12.844 L0.667,12.844 Z" id="path-3"></path>
        <path d="M0.667,12.844 L3.528,12.844 C3.834,7.745 7.867,3.646 12.91,3.291 L12.91,0.4 C6.291,0.764 0.978,6.155 0.667,12.844 L0.667,12.844 Z" id="path-5"></path>
        <path d="M0.949,3.29 C5.992,3.646 10.025,7.745 10.329,12.844 L13.191,12.844 C12.88,6.156 7.567,0.764 0.949,0.4 L0.949,3.29 L0.949,3.29 Z" id="path-7"></path>
        <path d="M0.949,3.291 C5.992,3.646 10.025,7.745 10.329,12.844 L13.192,12.844 C12.881,6.156 7.567,0.764 0.949,0.4 L0.949,3.291 L0.949,3.291 Z" id="path-9"></path>
        <path d="M13.227,0.917 C13.073,3.052 12.292,4.781 10.72,6.928 C9.714,8.303 7.079,11.551 4.923,14.25 L4.92,14.254 C4.109,15.27 3.361,16.205 2.784,16.924 L0.888,19.293 C1.307,19.815 1.579,20.154 1.632,20.221 L2.784,21.656 L3.935,20.221 C4.23,19.854 11.22,11.284 13.064,8.736 C15.019,6.036 16.036,3.735 16.191,0.917 L13.227,0.917 L13.227,0.917 Z" id="path-11"></path>
        <path d="M13.227,0.917 C13.073,3.053 12.292,4.782 10.721,6.928 C9.714,8.303 7.079,11.551 4.922,14.25 L4.92,14.254 C4.109,15.27 3.361,16.205 2.784,16.924 L0.888,19.293 C1.308,19.815 1.579,20.155 1.633,20.221 L2.784,21.656 L3.935,20.221 C4.229,19.854 11.22,11.284 13.064,8.736 C15.019,6.036 16.036,3.735 16.192,0.917 L13.227,0.917 L13.227,0.917 Z" id="path-13"></path>
    </defs>
    <g id="Page-1" stroke="none" stroke-width="1" fill="none" fill-rule="evenodd">
        <g id="Consumer---Home---Desktop" transform="translate(-1021.000000, -1481.000000)">
            <g id="Subscribe" transform="translate(936.000000, 1480.000000)">
                <g id="Subscribe---Mail-icon" transform="translate(85.000000, 0.000000)">
                    <g id="Group-38" transform="translate(0.000000, 0.740000)">
                        <path d="M147.5833,83.4229 C147.5833,55.2559 124.7503,32.4229 96.5833,32.4229 C68.4163,32.4229 45.5833,55.2559 45.5833,83.4229 C45.5833,108.8669 64.2183,129.9539 88.5833,133.7939 L88.5833,65.7559 L103.9163,65.7559 L103.9163,133.8899 C128.6073,130.3329 147.5833,109.0979 147.5833,83.4229 L147.5833,83.4229 Z" id="Fill-1" fill="#48AADD"></path>
                        <path d="M88.0835,65.2559 L104.4165,65.2559 L104.4165,133.3099 C128.7815,129.5109 147.0835,108.1669 147.0835,83.4229 C147.0835,55.5769 124.4285,32.9229 96.5835,32.9229 C68.7375,32.9229 46.0835,55.5769 46.0835,83.4229 C46.0835,108.2399 63.7105,129.0839 88.0835,133.2059 L88.0835,65.2559 Z M103.4165,134.4679 L103.4165,66.2559 L89.0835,66.2559 L89.0835,134.3789 L88.5055,134.2879 C63.3455,130.3219 45.0835,108.9309 45.0835,83.4229 C45.0835,55.0259 68.1865,31.9229 96.5835,31.9229 C124.9805,31.9229 148.0835,55.0259 148.0835,83.4229 C148.0835,108.8549 129.1255,130.7639 103.9885,134.3859 L103.4165,134.4679 Z" id="Fill-3" fill="#1A95D4"></path>
                        <path d="M96.583,134.9121 L96.583,133.9331 C98.972,133.9331 101.416,133.7561 103.848,133.4061 L103.986,134.3751 C101.51,134.7311 99.019,134.9121 96.583,134.9121" id="Fill-7" fill="#0077BC"></path>
                        <path d="M96.5833,134.4229 C93.8613,134.4229 91.1903,134.2039 88.5833,133.7939" id="Fill-9" fill="#1A95D4"></path>
                        <path d="M96.583,134.9121 C93.902,134.9121 91.185,134.6981 88.507,134.2771 L88.66,133.3101 C91.287,133.7241 93.953,133.9331 96.583,133.9331 L96.583,134.9121 Z" id="Fill-11" fill="#0077BC"></path>
                        <path d="M88.5833,65.7559 L88.5833,133.1729 L88.5833,133.7939 C91.1903,134.2039 93.8613,134.4229 96.5833,134.4229 C99.0743,134.4229 101.5213,134.2349 103.9163,133.8899 L103.9163,133.2669 L103.9163,65.7559 L88.5833,65.7559 Z" id="Fill-13" fill="#1A95D4"></path>
                        <path d="M89.0835,133.3643 C93.8225,134.0703 98.5925,134.1093 103.4165,133.4563 L103.4165,66.2563 L89.0835,66.2563 L89.0835,133.3643 Z M96.5835,134.9233 C93.9015,134.9233 91.1835,134.7093 88.5055,134.2883 L88.0835,134.2213 L88.0835,65.2563 L104.4165,65.2563 L104.4165,134.3243 L103.9885,134.3853 C101.5105,134.7423 99.0195,134.9233 96.5835,134.9233 L96.5835,134.9233 Z" id="Fill-15" fill="#0077BC"></path>
                        <polygon id="Fill-17" fill-opacity="0.1" fill="#000000" points="88.5833 98.7559 103.9163 91.0889 103.9163 80.2979 88.2503 81.7559"></polygon>
                        <path d="M144.0833,10.0894 L60.0833,10.0894 L60.0833,78.0894 L161.2503,78.0894 L161.2503,38.0894 C161.2503,38.0894 161.4163,23.9224 144.0833,10.0894" id="Fill-19" fill="#A3D5EE"></path>
                        <path d="M60.5835,77.5898 L160.7505,77.5898 L160.7505,38.0898 C160.7505,37.9448 160.6885,24.0558 143.9075,10.5898 L60.5835,10.5898 L60.5835,77.5898 Z M161.7505,78.5898 L59.5835,78.5898 L59.5835,9.5898 L144.2575,9.5898 L144.3945,9.6988 C161.7205,23.5258 161.7565,37.5068 161.7505,38.0948 L161.7505,78.5898 Z" id="Fill-21" fill="#1A95D4"></path>
                        <path d="M156.0833,11.5894 C156.0833,17.5724 151.2333,22.4224 145.2503,22.4224 C139.2673,22.4224 134.4163,17.5724 134.4163,11.5894 C134.4163,5.6064 139.2673,0.7564 145.2503,0.7564 C151.2333,0.7564 156.0833,5.6064 156.0833,11.5894" id="Fill-23" fill="#FB8CB0"></path>
                        <path d="M145.25,1.2563 C139.553,1.2563 134.917,5.8913 134.917,11.5893 C134.917,17.2873 139.553,21.9233 145.25,21.9233 C150.947,21.9233 155.583,17.2873 155.583,11.5893 C155.583,5.8913 150.947,1.2563 145.25,1.2563 M145.25,22.9233 C139.001,22.9233 133.917,17.8393 133.917,11.5893 C133.917,5.3403 139.001,0.2563 145.25,0.2563 C151.499,0.2563 156.583,5.3403 156.583,11.5893 C156.583,17.8393 151.499,22.9233 145.25,22.9233" id="Fill-25" fill="#FA6F9C"></path>
                        <path d="M91.4346,38.9229 C90.4446,22.8339 77.0886,10.0899 60.7496,10.0899 C44.4116,10.0899 31.0556,22.8339 30.0656,38.9229 L29.9996,38.9229 L29.9996,77.1729 L91.4996,77.1729 L91.4996,38.9229 L91.4346,38.9229 Z" id="Fill-27" fill="#76BFE5"></path>
                        <path d="M30.5,76.6729 L91,76.6729 L91,39.2749 L90.936,38.9539 C89.957,23.0479 76.698,10.5899 60.75,10.5899 C44.802,10.5899 31.543,23.0479 30.564,38.9539 L30.5,39.4229 L30.5,76.6729 Z M92,77.6729 L29.5,77.6729 L29.5,38.4229 L29.599,38.4229 C30.839,22.2159 44.432,9.5899 60.75,9.5899 C77.068,9.5899 90.661,22.2159 91.901,38.4229 L91.935,38.4229 L92,38.9229 L92,77.6729 Z" id="Fill-29" fill="#1A95D4"></path>
                        <path d="M161.25,82.4229 L161.25,83.4229 L1.494,83.4229 C0.945,83.4229 0.5,82.9749 0.5,82.4229 L0.5,78.1729 C0.5,77.6209 0.945,77.1729 1.494,77.1729 L160.256,77.1729 L161.25,77.1729 L161.25,82.4229 Z" id="Fill-31" fill="#1A95D4"></path>
                        <g id="Group-35" transform="translate(0.000000, 76.000000)">
                            <mask id="mask-2" fill="white">
                                <use xlink:href="#path-1"></use>
                            </mask>
                            <g id="Clip-34"></g>
                            <path d="M1.4937,1.6729 C1.2217,1.6729 0.9997,1.8979 0.9997,2.1729 L0.9997,6.4229 C0.9997,6.6979 1.2217,6.9229 1.4937,6.9229 L160.7497,6.9229 L160.7497,1.6729 L1.4937,1.6729 Z M161.7497,7.9229 L1.4937,7.9229 C0.6697,7.9229 -0.0003,7.2499 -0.0003,6.4229 L-0.0003,2.1729 C-0.0003,1.3459 0.6697,0.6729 1.4937,0.6729 L161.7497,0.6729 L161.7497,7.9229 Z" id="Fill-33" fill="#0077BC" mask="url(#mask-2)"></path>
                        </g>
                        <text id="3" font-family="AvenirNext-DemiBold, Avenir Next" font-size="12" font-weight="500" fill="#FFFFFF">
                            <tspan x="141.25" y="15.0309322">3</tspan>
                        </text>
                        <path d="M122.9088,31.2896 L122.9088,28.4006 C116.2908,28.7646 110.9778,34.1546 110.6668,40.8436 L113.5278,40.8436 C113.8328,35.7446 117.8668,31.6456 122.9088,31.2896" id="Fill-37" fill="#FFFFFF"></path>
                    </g>
                    <g id="Group-41" transform="translate(110.000000, 28.740000)">
                        <mask id="mask-4" fill="white">
                            <use xlink:href="#path-3"></use>
                        </mask>
                        <g id="Clip-40"></g>
                    </g>
                    <g id="Group-44" transform="translate(110.000000, 28.740000)">
                        <mask id="mask-6" fill="white">
                            <use xlink:href="#path-5"></use>
                        </mask>
                        <g id="Clip-43"></g>
                    </g>
                    <path d="M134.3298,41.5833 L137.1908,41.5833 C136.8798,34.8953 131.5668,29.5043 124.9488,29.1403 L124.9488,32.0293 C129.9908,32.3863 134.0248,36.4843 134.3298,41.5833" id="Fill-45" fill="#FFFFFF"></path>
                    <g id="Group-49" transform="translate(124.000000, 28.740000)">
                        <mask id="mask-8" fill="white">
                            <use xlink:href="#path-7"></use>
                        </mask>
                        <g id="Clip-48"></g>
                    </g>
                    <g id="Group-52" transform="translate(124.000000, 28.740000)">
                        <mask id="mask-10" fill="white">
                            <use xlink:href="#path-9"></use>
                        </mask>
                        <g id="Clip-51"></g>
                    </g>
                    <path d="M124.116,55.7869 C126.192,53.1309 129.642,48.7899 130.158,48.0239 C130.931,46.8779 131.967,45.3749 132.079,43.0779 C132.086,42.9329 132.09,42.7879 132.09,42.6409 C132.09,38.0559 128.445,34.3249 123.965,34.3249 C119.485,34.3249 115.84,38.0559 115.84,42.6409 C115.84,42.7879 115.844,42.9329 115.851,43.0779 C115.963,45.3749 116.942,47.0249 117.773,48.0249 L117.826,48.0889 C118.802,49.2309 120.075,50.0999 121.52,50.5699 L123.337,48.2369 L121.733,47.4379 C119.912,46.3859 118.882,44.9139 118.781,42.9199 C118.776,42.8289 118.773,42.7359 118.773,42.6409 C118.773,39.7109 121.102,37.3269 123.965,37.3269 C126.828,37.3269 129.157,39.7109 129.157,42.6409 C129.157,42.7359 129.154,42.8289 129.15,42.9199 C129.089,44.1149 128.726,44.9289 127.932,46.0649 C127.138,47.2009 120.629,55.4419 120.629,55.4419 C118.806,53.1079 116.91,50.7159 116.093,49.5819 C114.562,47.4569 113.758,45.6579 113.607,43.4959 L110.667,43.4959 C110.821,46.3489 111.849,48.7269 113.768,51.4129 C114.97,53.0929 118.369,57.3619 120.631,60.2469 L122.508,57.8449 L124.116,55.7869 Z" id="Fill-53" fill="#FFFFFF"></path>
                    <path d="M131.7207,49.6677 C130.7147,51.0427 128.0787,54.2917 125.9227,56.9907 L125.9207,56.9927 C125.1087,58.0087 124.3607,58.9437 123.7837,59.6637 L121.8887,62.0327 C122.3077,62.5557 122.5787,62.8937 122.6317,62.9597 L123.7837,64.3957 L124.9357,62.9597 C125.2297,62.5937 132.2197,54.0227 134.0637,51.4767 C136.0197,48.7757 137.0357,46.4747 137.1917,43.6567 L134.2267,43.6567 C134.0737,45.7917 133.2917,47.5207 131.7207,49.6677" id="Fill-61" fill="#FFFFFF"></path>
                    <g id="Group-65" transform="translate(121.000000, 42.740000)">
                        <mask id="mask-12" fill="white">
                            <use xlink:href="#path-11"></use>
                        </mask>
                        <g id="Clip-64"></g>
                    </g>
                    <g id="Group-68" transform="translate(121.000000, 42.740000)">
                        <mask id="mask-14" fill="white">
                            <use xlink:href="#path-13"></use>
                        </mask>
                        <g id="Clip-67"></g>
                    </g>
                    <path d="M91.0313,77.4441 L90.0313,77.4441 L52.5313,77.4441 C51.9793,77.4441 51.5313,76.9961 51.5313,76.4441 L51.5313,40.9441 C51.5313,40.3921 51.9793,39.9441 52.5313,39.9441 L91.0313,39.9441 L91.0313,40.9441 L91.0313,77.4441 L91.0313,77.4441 Z" id="Fill-69" fill="#FFFFFF"></path>
                    <polygon id="Fill-71" fill="#A0A0A0" points="68.125 58.538 91.031 58.538 91.031 57.026 68.125 57.026"></polygon>
                    <polygon id="Fill-73" fill="#A0A0A0" points="68.125 63.319 91.031 63.319 91.031 61.694 68.125 61.694"></polygon>
                    <polygon id="Fill-74" fill="#A0A0A0" points="68.125 67.194 91.031 67.194 91.031 65.682 68.125 65.682"></polygon>
                    <polygon id="Fill-75" fill="#A0A0A0" points="59 49.042 71.281 49.042 71.281 47.53 59 47.53"></polygon>
                    <polygon id="Fill-76" fill-opacity="0.1" fill="#000000" points="90.0313 77.4441 71.2813 77.4441 77.2503 39.9441 91.0313 39.9441 91.0313 77.4441"></polygon>
                </g>
            </g>
        </g>
    </g>
</svg>