<?xml version="1.0" encoding="UTF-8"?>
<svg width="92px" height="34px" viewBox="0 0 92 34" version="1.1" xmlns="http://www.w3.org/2000/svg" xmlns:xlink="http://www.w3.org/1999/xlink">
    <!-- Generator: Sketch 41.2 (35397) - http://www.bohemiancoding.com/sketch -->
    <title>Logo</title>
    <desc>Created with Sketch.</desc>
    <defs></defs>
    <g id="Symbols" stroke="none" stroke-width="1" fill="none" fill-rule="evenodd">
        <g id="Navigation/Primary" transform="translate(-52.000000, -13.000000)" fill="#3893D9">
            <g id="Navigation">
                <g id="Logo" transform="translate(52.000000, 13.000000)">
                    <path d="M12,2.78603333 L12,-1.77635684e-14 C5.51288566,0.350991787 0.304900181,5.54958936 0,12 L2.80479129,12 C3.10388385,7.08236876 7.05771325,3.13010902 12,2.78603333" id="Fill-1"></path>
                    <path d="M23.1951408,12 L26,12 C25.6950924,5.54987753 20.4869809,0.350991787 14,-1.77635684e-14 L14,2.78603333 C18.9424063,3.13010902 22.8963314,7.08265693 23.1951408,12" id="Fill-3"></path>
                    <path d="M11.611063,27.6780995 L13.1833416,25.6979817 L13.1839381,25.6985824 C15.2181779,23.1370135 18.6001278,18.9503244 19.1062274,18.2114969 C19.8637364,17.1065593 20.8792161,15.657136 20.9889654,13.4412542 C20.996123,13.3018981 21,13.161641 21,13.0204829 C21,8.59802979 17.4271817,5 13.0357168,5 C8.6439537,5 5.07113541,8.59802979 5.07113541,13.0204829 C5.07113541,13.161641 5.07501243,13.3018981 5.08216999,13.4412542 C5.19191934,15.657136 6.15162962,17.2483181 6.96580274,18.2123979 L7.01799333,18.2742672 L7.0224668,18.2706631 C7.9747213,19.3756007 9.22192715,20.2141398 10.6382305,20.6664464 L12.4192715,18.4166266 L10.8475893,17.6459635 C10.8475893,17.6459635 11.6179223,18.0829529 10.8469928,17.6453628 C9.06237307,16.6320279 8.05255982,15.2120375 7.95354683,13.289284 C7.94907335,13.2012854 7.94638926,13.1117852 7.94638926,13.0204829 C7.94638926,10.194618 10.2293545,7.89524267 13.0357168,7.89524267 C15.8417809,7.89524267 18.1247461,10.194618 18.1247461,13.0204829 C18.1247461,13.1117852 18.1220621,13.2012854 18.1178868,13.289284 C18.0582404,14.4413743 17.7018533,15.2264536 16.9237662,16.3217804 C16.1456792,17.4174075 9.76500746,25.365209 9.76500746,25.365209 C7.97800185,23.1147886 6.11942058,20.8073042 5.31896613,19.7137794 C3.81856139,17.6645843 3.03063268,15.9292407 2.88241142,13.844606 L0,13.844606 C0.151501811,16.5953868 1.15863097,18.8899568 3.0401761,21.4797573 C4.21789391,23.1003724 7.55003905,27.2170831 9.76709508,30 L11.6074842,27.6826045 C11.6074842,27.6826045 11.6092736,27.6802018 11.611063,27.6780995" id="Fill-5"></path>
                    <path d="M20.6375955,19.7967489 C19.6511055,21.1229829 17.0680711,24.2556953 14.9543787,26.8589226 L14.952274,26.8612957 C14.1567079,27.8410655 13.4233799,28.7428215 12.8578244,29.437233 L11,31.7221761 C11.4104111,32.2261509 11.6765018,32.5521476 11.7285173,32.6162197 L12.8578244,34 L13.9868308,32.6162197 C14.2745695,32.2632297 21.1270821,23.9970337 22.934695,21.540935 C24.8511496,18.9365211 25.8472609,16.7168367 26,14 L23.0940488,14 C22.9443164,16.0589108 22.1776143,17.7262696 20.6375955,19.7967489" id="Fill-7"></path>
                    <path d="M61,23 C60.4539343,23 59.9793736,23.2000791 59.5888464,23.5951721 C59.1980138,23.9927978 59,24.4740008 59,25.024535 C59,25.300277 59.0553094,25.5643055 59.1644003,25.8080728 C59.2710466,26.0480412 59.4192513,26.2585675 59.6044309,26.4333201 C59.7859435,26.6045904 59.9992361,26.7432529 60.2385027,26.8451919 C60.4777693,26.9480807 60.7338426,27 61,27 C61.547288,27 62.0224599,26.7999209 62.4126814,26.4051444 C62.8022918,26.0097349 63,25.5294816 63,24.9767313 C63,24.4223981 62.7974026,23.9481599 62.3977082,23.5669964 C62.0001528,23.1908983 61.5301757,23 61,23" id="Fill-9"></path>
                    <path d="M68.8173206,16.554804 C69.1199982,16.1501706 69.5060604,15.8193232 69.9651213,15.5714852 C70.4224018,15.3242423 70.9609898,15.1989844 71.5666416,15.1989844 C72.097811,15.1989844 72.6283869,15.3254324 73.1435322,15.5744605 C73.6539296,15.8214059 74.0417722,16.1308315 74.2963775,16.493514 L74.3943025,16.6327555 L77,14.3403285 L76.9050423,14.2257815 C76.3329225,13.5337393 75.550412,12.9836163 74.57947,12.5902888 C73.6147595,12.1984489 72.6010865,12 71.5666416,12 C70.533977,12 69.5493848,12.1788123 68.6401653,12.5316765 C67.730649,12.8848381 66.9232121,13.3915225 66.240704,14.037746 C65.5519642,14.6884322 65.0015065,15.484013 64.6041681,16.4018764 C64.2032687,17.3242026 64,18.3670263 64,19.500595 C64,20.6731395 64.2032687,21.7347072 64.6041681,22.6555459 C65.0018033,23.5757894 65.5573056,24.3716677 66.2552444,25.0205689 C66.9490287,25.66947 67.7724897,26.1666336 68.7024812,26.4989686 C69.6271314,26.8316011 70.6200324,27 71.6532904,27 C72.7037595,27 73.6966605,26.8265432 74.6040996,26.4843899 C75.5171768,26.140749 76.2798055,25.645668 76.8709169,25.0131308 L76.971216,24.9057244 L74.5836244,22.482089 L74.4762035,22.6150825 C74.1690748,22.9962115 73.7536351,23.291951 73.240567,23.4939702 C72.7266087,23.6977745 72.2019676,23.8010156 71.681481,23.8010156 C71.0556507,23.8010156 70.5022256,23.6760552 70.0366363,23.4294073 C69.5689698,23.1812718 69.1722249,22.8495319 68.8582711,22.4434108 C68.5458011,22.0378848 68.3069232,21.5725563 68.1484626,21.0605165 C67.991189,20.5523445 67.9110685,20.0275111 67.9110685,19.500595 C67.9110685,18.9730839 67.9864411,18.447358 68.135406,17.9376983 C68.2808099,17.431609 68.510192,16.9662805 68.8173206,16.554804" id="Fill-11"></path>
                    <path d="M88.2660074,19.4428753 C88.2660074,19.9647334 88.1872018,20.4946247 88.0316188,21.018268 C87.8809611,21.5335806 87.6477314,22.0036695 87.3391729,22.415146 C87.0343809,22.8203745 86.6429606,23.1565773 86.1759218,23.4145311 C85.7132289,23.6712948 85.1494215,23.8010156 84.5001449,23.8010156 C83.8505785,23.8010156 83.2867711,23.6712948 82.8240782,23.4142336 C82.3570394,23.1565773 81.9656191,22.8203745 81.6608271,22.415146 C81.3545864,22.00962 81.1207772,21.5395311 80.9660634,21.018268 C80.8122187,20.4925421 80.7339926,19.9623532 80.7339926,19.4428753 C80.7339926,18.9222072 80.8122187,18.3973738 80.9657737,17.8829538 C81.1204875,17.3703189 81.3545864,16.904693 81.6611168,16.4988694 C81.9653294,16.094236 82.3558805,15.7630911 82.8223398,15.514658 C83.2853225,15.2668201 83.8497093,15.1412647 84.5001449,15.1412647 C85.1505804,15.1412647 85.7149673,15.2668201 86.1782396,15.514658 C86.6441195,15.7630911 87.0346706,16.094236 87.3388832,16.4988694 C87.6480212,16.910941 87.8812508,17.376567 88.0321983,17.8829538 C88.1872018,18.3952912 88.2660074,18.919827 88.2660074,19.4428753 M91.4098275,16.3870002 C91.0181176,15.4747897 90.4803855,14.6842669 89.8122767,14.0374484 C89.1427192,13.39063 88.3393081,12.883648 87.4246422,12.5310814 C86.5099762,12.1785148 85.5260657,12 84.5001449,12 C83.4750932,12 82.4903135,12.1785148 81.5733297,12.5310814 C80.6572152,12.8842431 79.8543836,13.391225 79.1877233,14.037746 C78.5152686,14.6884322 77.9778263,15.4792526 77.5904622,16.3870002 C77.1987522,17.2995081 77,18.3274556 77,19.4428753 C77,20.558295 77.1987522,21.5907053 77.5898828,22.5118415 C77.9772468,23.4291098 78.5143994,24.2291534 79.1865644,24.889658 C79.8523555,25.5459973 80.6546076,26.0672604 81.5710119,26.4397612 C82.4885751,26.8113694 83.474224,27 84.5001449,27 C85.5269349,27 86.5117146,26.8113694 87.42696,26.4397612 C88.3419157,26.0678554 89.1447473,25.5465924 89.8131458,24.889658 C90.4812547,24.2336163 91.018697,23.4335727 91.4101172,22.512139 C91.8015375,21.5907053 92,20.558295 92,19.4428753 C92,18.3274556 91.8015375,17.2995081 91.4098275,16.3870002" id="Fill-13"></path>
                    <path d="M44.9924406,8.94024012 C44.3642148,8.33421599 43.6119312,7.85336864 42.7567562,7.51153973 C41.9024631,7.17211808 40.9705604,7 39.9872121,7 C39.0188564,7 38.096655,7.16279 37.2458896,7.48385641 C36.3915965,7.80552463 35.6431346,8.27283122 35.0207883,8.87253633 C34.4002058,9.4698342 33.9025051,10.2034424 33.5412091,11.0525983 C33.1819709,11.8969398 33,12.8487046 33,13.8811121 C33,14.7702886 33.1602167,15.6071074 33.4756525,16.3677971 C33.6361632,16.7580718 33.8357726,17.1311949 34.0715411,17.4811483 L34.0303845,17.4721211 L34.3475842,17.8629976 C34.5019213,18.0579845 34.6480272,18.2243854 34.7938391,18.3715283 C34.9464124,18.525592 35.1216219,18.6814612 35.3268169,18.8457557 C36.3713122,19.7310204 37.6539277,20.4176872 38.674317,20.6370475 L38.7754446,20.6590136 L40.4043634,18.0986068 L40.2026962,18.0435411 C40.1900552,18.0402311 38.9203746,17.6818524 37.4975327,16.2934734 C37.1944439,15.9838414 36.9610272,15.6059038 36.8034563,15.1689887 C36.6423577,14.727259 36.5609264,14.23919 36.5609264,13.7177203 C36.5609264,12.6266362 36.8813598,11.7269281 37.5134074,11.044173 C38.1431031,10.3653296 38.9841673,10.0207926 40.0130819,10.0207926 C40.5340067,10.0207926 41.011717,10.1212951 41.433278,10.3189902 C41.855721,10.5184907 42.2234845,10.7893058 42.5259853,11.1242139 C42.8293682,11.4612283 43.0645486,11.8506003 43.2247653,12.2814973 C43.3843941,12.7154034 43.4652374,13.1803027 43.4652374,13.6635573 C43.4652374,15.8758162 42.2746362,17.8214726 41.0552254,19.6244997 L36.0673414,27 L40.3067635,27 L45.0421225,19.4963139 C45.3440354,19.0085457 45.6180207,18.5307074 45.8561409,18.0769416 C46.0942612,17.6273884 46.3023959,17.1700117 46.4743716,16.7171486 C46.6442895,16.2684982 46.7759906,15.7939698 46.8659471,15.3059008 C46.9550217,14.8238498 47,14.2984684 47,13.7454037 C47,12.8023651 46.8224387,11.9101796 46.4720198,11.0929197 C46.1195431,10.271748 45.6218424,9.54746788 44.9924406,8.94024012" id="Fill-15"></path>
                    <path d="M60.8561169,18.0770758 C61.0945361,17.6275295 61.3023813,17.1701596 61.4743606,16.7173033 C61.6442821,16.2695623 61.7756919,15.7950411 61.8659443,15.3060767 C61.9550208,14.8243339 62,14.2992613 62,13.7456031 C62,12.8025787 61.822435,11.9101058 61.4720087,11.093159 C61.1198186,10.2719996 60.6221074,9.54773045 59.9923985,8.94051183 C59.3641594,8.33449682 58.612154,7.8536567 57.7569611,7.51153204 C56.9023561,7.17211549 55.9707278,7 54.9870648,7 C54.0186888,7 53.096468,7.16278755 52.2459787,7.48415003 C51.3916677,7.80581341 50.6428961,8.27311297 50.0208307,8.87280906 C49.4005292,9.46979704 48.902524,10.2030933 48.5409265,11.0528383 C48.1819747,11.8974679 48,12.8489175 48,13.8813095 C48,14.7701717 48.1602201,15.6069779 48.4756625,16.367957 C48.6358826,16.7582259 48.8354962,17.1310425 49.0712696,17.4812915 L49.0304061,17.4722644 L49.3476124,17.8628342 C49.500777,18.0572164 49.6468859,18.2236147 49.7935828,18.3716581 C49.9458654,18.5254186 50.1213725,18.6812854 50.3265718,18.8455775 C51.371383,19.7311297 52.6540255,20.4174854 53.6741422,20.6371432 L53.7755659,20.6588081 L55.4042249,18.0984398 L55.2025534,18.0436758 C55.1899122,18.040065 53.9210869,17.6825944 52.4976271,16.2933335 C52.194238,15.9840071 51.9608164,15.6060752 51.8035362,15.1691667 C51.6424342,14.7274437 51.5607072,14.239081 51.5607072,13.7179202 C51.5607072,12.6265515 51.8814414,11.7271578 52.5135022,11.044413 C53.1432111,10.365279 53.983999,10.021048 55.0129352,10.021048 C55.5338709,10.021048 56.0118853,10.1212481 56.4334551,10.3192411 C56.855613,10.5184377 57.2233842,10.7895497 57.5261854,11.1244527 C57.8295746,11.4611612 58.064466,11.8505273 58.2246861,12.2814178 C58.3843182,12.7150165 58.4651632,13.1802097 58.4651632,13.663758 C58.4651632,15.8762845 57.274831,17.8216107 56.0553946,19.6246107 L51.0671118,27 L55.306623,27 L60.0423754,19.4964268 C60.3445886,19.0080642 60.6185796,18.530233 60.8561169,18.0770758" id="Fill-17"></path>
                </g>
            </g>
        </g>
    </g>
</svg>