<svg width="23" height="23" viewBox="0 0 23 23" xmlns="http://www.w3.org/2000/svg"><title></title><path d="M15.429 9.429c0-1.652-.587-3.065-1.762-4.24-1.174-1.173-2.587-1.76-4.238-1.76-1.652 0-3.065.587-4.24 1.76-1.173 1.175-1.76 2.588-1.76 4.24 0 1.651.587 3.064 1.76 4.238 1.175 1.175 2.588 1.762 4.24 1.762 1.651 0 3.064-.587 4.238-1.762 1.175-1.174 1.762-2.587 1.762-4.238zm6.857 11.142c0 .465-.17.866-.51 1.206-.339.34-.74.509-1.205.509-.482 0-.883-.17-1.205-.51l-4.594-4.58c-1.598 1.108-3.38 1.661-5.343 1.661a9.265 9.265 0 0 1-3.663-.743 9.427 9.427 0 0 1-3.014-2.01 9.427 9.427 0 0 1-2.009-3.012A9.265 9.265 0 0 1 0 9.429C0 8.152.248 6.93.743 5.766a9.427 9.427 0 0 1 2.01-3.014A9.427 9.427 0 0 1 5.765.743 9.265 9.265 0 0 1 9.429 0c1.276 0 2.497.248 3.663.743a9.427 9.427 0 0 1 3.013 2.01 9.427 9.427 0 0 1 2.009 3.013 9.265 9.265 0 0 1 .743 3.663c0 1.964-.553 3.745-1.66 5.343l4.593 4.594c.33.33.496.732.496 1.205z" fill="#3893D9" fill-rule="evenodd"/></svg>