<svg width="10" height="10" viewBox="0 0 10 10" xmlns="http://www.w3.org/2000/svg"><title>Combined Shape</title><path d="M5.87 5L9.95 9.084c.115.115.115.3 0 .415l-.415.415a.293.293 0 0 1-.414 0L5.226 6.016a.293.293 0 0 0-.415 0L.915 9.914a.293.293 0 0 1-.414 0L.086 9.5a.294.294 0 0 1 0-.415L4.167 5 .086.916a.294.294 0 0 1 0-.415L.5.086a.293.293 0 0 1 .414 0l3.896 3.898c.114.115.3.115.415 0L9.122.086a.293.293 0 0 1 .414 0L9.951.5c.115.115.115.3 0 .415L5.87 5z" fill="#3E4246" fill-rule="evenodd" fill-opacity=".6"/></svg>