<svg width="177" height="52" viewBox="0 0 177 52" xmlns="http://www.w3.org/2000/svg"><title>Appstore</title><g fill="none" fill-rule="evenodd"><rect fill="#000" width="176.19" height="51.961" rx="3.745"/><path d="M67.628 39.905h2.962l-6.483-17.838H61.11l-6.483 17.838h2.862l1.655-4.735h6.843l1.642 4.735zm-5.163-14.6h.211l2.6 7.541h-5.424l2.613-7.54zm15.977.915c-1.842 0-3.434.915-4.256 2.448h-.199v-2.225h-2.575v17.826h2.675v-6.404h.211c.71 1.422 2.24 2.262 4.169 2.262 3.421 0 5.599-2.682 5.599-6.96 0-4.277-2.178-6.947-5.624-6.947zm-.76 11.522c-2.239 0-3.645-1.756-3.645-4.562 0-2.819 1.406-4.574 3.658-4.574 2.265 0 3.62 1.718 3.62 4.562 0 2.855-1.355 4.574-3.632 4.574zM92.317 26.22c-1.842 0-3.434.915-4.256 2.448h-.199v-2.225h-2.575v17.826h2.675v-6.404h.211c.71 1.422 2.24 2.262 4.169 2.262 3.421 0 5.599-2.682 5.599-6.96 0-4.277-2.178-6.947-5.624-6.947zm-.76 11.522c-2.239 0-3.645-1.756-3.645-4.562 0-2.819 1.406-4.574 3.658-4.574 2.265 0 3.62 1.718 3.62 4.562 0 2.855-1.355 4.574-3.632 4.574zm12.046-2.634c.2 3.19 2.875 5.23 6.856 5.23 4.256 0 6.918-2.139 6.918-5.55 0-2.683-1.518-4.167-5.2-5.02l-1.979-.482c-2.34-.544-3.285-1.273-3.285-2.547 0-1.607 1.468-2.657 3.67-2.657 2.091 0 3.534 1.026 3.796 2.67h2.712c-.162-3.004-2.824-5.118-6.47-5.118-3.92 0-6.532 2.114-6.532 5.29 0 2.622 1.48 4.18 4.728 4.933l2.314.557c2.377.556 3.422 1.372 3.422 2.732 0 1.582-1.643 2.732-3.882 2.732-2.402 0-4.069-1.076-4.305-2.77h-2.763zM119.68 23.18v3.326h-2.227v2.237h2.227v7.603c0 2.596 1.182 3.634 4.156 3.634.522 0 1.007-.062 1.43-.136V37.63c-.373.037-.584.062-.995.062-1.331 0-1.916-.618-1.916-2.027v-6.923h3.036v-2.237h-3.036v-3.326h-2.675zm12.344 14.624c-2.327 0-3.634-1.693-3.634-4.635 0-2.918 1.307-4.624 3.634-4.624 2.314 0 3.633 1.706 3.633 4.624 0 2.93-1.32 4.635-3.633 4.635zm0 2.362c3.956 0 6.382-2.634 6.382-6.997 0-4.34-2.438-6.985-6.382-6.985-3.957 0-6.396 2.646-6.396 6.985 0 4.363 2.426 6.997 6.396 6.997zm7.603-.26h2.675v-7.949c0-1.891 1.43-3.164 3.446-3.164.448 0 1.27.086 1.48.16v-2.62c-.285-.075-.795-.112-1.181-.112-1.767 0-3.26.964-3.646 2.287h-.199v-2.064h-2.575v13.462zm13.625-11.46c1.978 0 3.272 1.373 3.334 3.486h-6.843c.15-2.101 1.53-3.486 3.509-3.486zm3.322 7.825c-.498 1.051-1.605 1.632-3.223 1.632-2.14 0-3.52-1.496-3.608-3.857v-.148h9.568v-.927c0-4.228-2.277-6.787-6.047-6.787-3.82 0-6.246 2.732-6.246 7.034s2.377 6.948 6.259 6.948c3.098 0 5.263-1.484 5.873-3.895h-2.576zM57.133 8.143v8.494h3.087c2.548 0 4.023-1.56 4.023-4.274 0-2.672-1.487-4.22-4.023-4.22h-3.087zm1.327 1.2h1.612c1.771 0 2.82 1.119 2.82 3.038 0 1.949-1.03 3.055-2.82 3.055H58.46V9.344zm10.453 6.293c-1.108 0-1.73-.806-1.73-2.207 0-1.39.622-2.202 1.73-2.202 1.102 0 1.73.813 1.73 2.202 0 1.395-.628 2.207-1.73 2.207zm0 1.125c1.884 0 3.04-1.254 3.04-3.332 0-2.066-1.162-3.326-3.04-3.326-1.884 0-3.045 1.26-3.045 3.326 0 2.078 1.155 3.332 3.045 3.332zm13.024-6.534h-1.274l-1.149 4.891h-.1l-1.328-4.891h-1.22l-1.328 4.891h-.094l-1.156-4.891h-1.291l1.777 6.41h1.31l1.327-4.721h.1l1.333 4.721h1.322l1.771-6.41zm1.619 6.41h1.274v-3.75c0-1 .628-1.624 1.653-1.624.948 0 1.41.512 1.41 1.542v3.832h1.274v-4.15c0-1.525-.812-2.384-2.252-2.384-.971 0-1.724.43-2.038 1.142h-.095v-1.018h-1.226v6.41zm7.763 0h1.274V7.725h-1.274v8.912zm6.21-1c-1.108 0-1.73-.807-1.73-2.208 0-1.39.622-2.202 1.73-2.202 1.102 0 1.73.813 1.73 2.202 0 1.395-.628 2.207-1.73 2.207zm0 1.124c1.885 0 3.04-1.254 3.04-3.332 0-2.066-1.161-3.326-3.04-3.326-1.884 0-3.045 1.26-3.045 3.326 0 2.078 1.155 3.332 3.045 3.332zm6.981-1.083c-.693 0-1.197-.336-1.197-.913 0-.565.403-.865 1.292-.924l1.576-.1v.536c0 .794-.71 1.4-1.67 1.4zm-.326 1.065c.848 0 1.553-.365 1.938-1.007h.1v.901h1.227v-4.38c0-1.354-.912-2.154-2.53-2.154-1.463 0-2.506.706-2.637 1.807h1.233c.142-.453.634-.712 1.345-.712.87 0 1.321.382 1.321 1.06v.553l-1.748.1c-1.534.094-2.4.76-2.4 1.913 0 1.171.907 1.92 2.151 1.92zm7.74 0c.888 0 1.64-.418 2.026-1.118h.1v1.012h1.221V7.725h-1.274v3.52h-.095c-.35-.706-1.096-1.124-1.978-1.124-1.63 0-2.679 1.283-2.679 3.308 0 2.03 1.037 3.314 2.679 3.314zm.361-5.486c1.066 0 1.736.841 1.736 2.178 0 1.342-.664 2.172-1.736 2.172-1.078 0-1.724-.818-1.724-2.178 0-1.348.652-2.172 1.724-2.172zm11.544 4.38c-1.108 0-1.73-.807-1.73-2.208 0-1.39.622-2.202 1.73-2.202 1.102 0 1.73.813 1.73 2.202 0 1.395-.628 2.207-1.73 2.207zm0 1.124c1.884 0 3.04-1.254 3.04-3.332 0-2.066-1.162-3.326-3.04-3.326-1.884 0-3.045 1.26-3.045 3.326 0 2.078 1.155 3.332 3.045 3.332zm4.872-.124h1.274v-3.75c0-1 .628-1.624 1.653-1.624.948 0 1.41.512 1.41 1.542v3.832h1.274v-4.15c0-1.525-.812-2.384-2.252-2.384-.972 0-1.724.43-2.038 1.142h-.095v-1.018h-1.226v6.41zm11.775-7.965v1.584h-1.06v1.065h1.06v3.62c0 1.237.563 1.731 1.979 1.731.249 0 .48-.029.681-.064v-1.054c-.177.018-.278.03-.474.03-.634 0-.912-.295-.912-.966v-3.297h1.446v-1.065h-1.446V8.672h-1.274zm4.534 7.965h1.274v-3.744c0-.971.645-1.625 1.688-1.625.96 0 1.44.518 1.44 1.543v3.826h1.274V12.5c0-1.525-.83-2.39-2.281-2.39-.972 0-1.718.43-2.033 1.148h-.1V7.725h-1.262v8.912zm10.423-5.457c.942 0 1.558.654 1.588 1.66h-3.259c.071-1 .729-1.66 1.671-1.66zm1.582 3.726c-.237.5-.764.777-1.535.777-1.019 0-1.676-.712-1.718-1.836v-.07h4.556v-.442c0-2.014-1.084-3.232-2.88-3.232-1.818 0-2.973 1.3-2.973 3.35 0 2.048 1.131 3.308 2.98 3.308 1.475 0 2.506-.707 2.796-1.855h-1.226z" fill="#FFF"/><g fill="#FFF"><path d="M39.235 26.228c-.039-4.312 3.554-6.41 3.718-6.507-2.035-2.947-5.188-3.35-6.296-3.382-2.649-.277-5.218 1.574-6.567 1.574-1.377 0-3.454-1.547-5.694-1.502-2.881.044-5.577 1.702-7.055 4.276-3.052 5.248-.776 12.96 2.147 17.203 1.463 2.079 3.171 4.397 5.408 4.316 2.188-.089 3.005-1.386 5.646-1.386 2.616 0 3.384 1.386 5.665 1.332 2.348-.035 3.827-2.085 5.238-4.183 1.69-2.379 2.368-4.727 2.395-4.847-.053-.018-4.559-1.726-4.605-6.894M34.926 13.548c1.177-1.462 1.982-3.452 1.759-5.47-1.703.075-3.834 1.17-5.06 2.6-1.086 1.26-2.055 3.326-1.805 5.269 1.914.142 3.878-.96 5.106-2.399"/></g></g></svg>