<svg width="177" height="52" viewBox="0 0 177 52" xmlns="http://www.w3.org/2000/svg" xmlns:xlink="http://www.w3.org/1999/xlink"><title>Playstore</title><defs><linearGradient x1="50%" y1="0%" x2="50%" y2="38.913%" id="b"><stop stop-color="#FBDA09" offset="0%"/><stop stop-color="#FFBC00" offset="100%"/></linearGradient><path d="M13.832 3.517c.787-1.38 2.06-1.383 2.85 0l15.312 26.831c.787 1.38.133 2.497-1.455 2.497H-.024c-1.591 0-2.245-1.114-1.456-2.497L13.832 3.517z" id="a"/><linearGradient x1="0%" y1="58.476%" x2="69.306%" y2="39.083%" id="c"><stop stop-color="#01E2FF" offset="0%"/><stop stop-color="#01C4FF" offset="100%"/></linearGradient><linearGradient x1="20.281%" y1="20.102%" x2="83.82%" y2="83.621%" id="e"><stop stop-color="#28D781" offset="0%"/><stop stop-color="#02F076" offset="100%"/></linearGradient><linearGradient x1="74.488%" y1="17.43%" x2="10.108%" y2="91.184%" id="f"><stop stop-color="#F2414E" offset="0%"/><stop stop-color="#E02554" offset="100%"/></linearGradient></defs><g transform="translate(.81)" fill="none" fill-rule="evenodd"><rect fill="#000" width="176.19" height="51.866" rx="4.571"/><g fill="#FFF"><path d="M93.368 17.242a4.258 4.258 0 0 0 4.265-4.252 4.258 4.258 0 0 0-4.265-4.251 4.258 4.258 0 0 0-4.266 4.251 4.258 4.258 0 0 0 4.266 4.252zm0-1.3a2.957 2.957 0 0 0 2.962-2.952 2.957 2.957 0 0 0-2.962-2.952 2.957 2.957 0 0 0-2.962 2.952 2.957 2.957 0 0 0 2.962 2.953zM64.457 13.463v2.598h3.436v.944h-4.74V9.093h4.74v.945h-3.436v2.48h3.08v.945h-3.08zM72.514 10.038v6.967h-1.303v-6.967h-2.014v-.945h5.331v.945h-2.014zM84.126 10.038v6.967h-1.303v-6.967h-2.015v-.945h5.332v.945h-2.014zM78.32 9.093h1.303v7.912H78.32zM99.47 9.093h-.77v7.912h1.303V10.83l3.792 6.175h1.303V9.093h-1.303v5.79l-3.555-5.79h-.77zM58.27 12.656h3.569l-.036 1.126H58.27z"/><path d="M62.137 12.656v.042c.392 2.866-1.569 4.517-3.92 4.496-2.312-.004-4.187-1.866-4.187-4.169 0-2.302 1.875-4.168 4.187-4.168 1.209 0 2.225.42 2.92 1.15l-.817.813c-.51-.518-1.233-.802-2.068-.802a3.014 3.014 0 0 0-3.02 3.007 3.014 3.014 0 0 0 3.02 3.008c1.669 0 2.853-.96 2.85-3.008.004-.126 0-.25-.008-.369h1.043z"/></g><g fill="#FFF"><path d="M127.966 23.264h6.718s3.867.656 3.867 5.082-3.867 5.081-3.867 5.081h-6.718V23.264zm1.304 2.459h4.56s2.075 0 2.075 2.727c0 2.726-2.075 2.726-2.075 2.726h-4.56v-5.453z"/><path d="M127.374 23.264h2.37v16.533h-2.37zM139.934 23.264h2.37v16.533h-2.37zM151.086 38.615v1.177h2.37v-7.176-.014c0-.954-.701-3.787-4.822-3.787-3.315 0-4.42 2.27-4.42 2.27l1.975 1.162s.476-1.163 2.634-1.163c1.57 0 2.095 1.182 2.263 1.826v.485c-.688-.333-2.178-.858-4.304-.543-3.004.445-2.818 3.245-2.818 3.477 0 .232.002 3.666 3.778 3.43 1.648-.102 2.692-.607 3.344-1.144zm-.169-3.541s-4.565-1.227-4.724 1.33c-.159 2.556 4.38 1.328 4.785-.484 0-.576-.06-.846-.06-.846zM157.903 39.17l-2.21 5.233h2.369l6.411-15.177h-2.37l-3.015 7.14-3.04-7.197h-2.37l4.225 10.001zM122.069 33.034s-1.04-4.22-5.012-4.22c-3.973 0-5.324 3.566-5.324 5.672 0 2.186 1.701 5.552 5.563 5.552 3.143 0 4.677-2.474 4.677-2.474l-1.901-1.283s-.996 1.568-2.76 1.559c-2.254-.012-2.738-1.72-2.738-1.72l7.495-3.086zm-2.852-.875s-.943-1.43-2.39-1.166c-3.058.558-2.673 3.226-2.673 3.226l5.063-2.06zM108.179 23.264h2.507v16.498h-2.507zM104.167 29.173v1.03s-1.008-1.445-3.104-1.387c-2.616.074-5.325 2.09-5.325 5.614s2.876 5.591 5.297 5.591c2.233 0 3.132-1.402 3.132-1.402v1.13c0 .806-.303 3.162-2.901 3.162-2.282 0-2.93-2.036-2.93-2.036l-2.13.892s1.209 3.303 4.95 3.303c3.74 0 5.328-2.807 5.328-5.467v-10.41l-2.317-.02zm-2.934 8.733c1.69 0 3.06-1.543 3.06-3.447 0-1.903-1.37-3.446-3.06-3.446s-3.06 1.543-3.06 3.446c0 1.904 1.37 3.447 3.06 3.447zM89.056 40.033c3.115 0 5.64-2.511 5.64-5.609s-2.525-5.61-5.64-5.61c-3.116 0-5.641 2.512-5.641 5.61 0 3.098 2.525 5.61 5.64 5.61zm-.037-2.2c1.751 0 3.17-1.526 3.17-3.409 0-1.883-1.419-3.41-3.17-3.41s-3.17 1.527-3.17 3.41c0 1.883 1.419 3.41 3.17 3.41zM76.852 40.033c3.115 0 5.64-2.511 5.64-5.609s-2.525-5.61-5.64-5.61c-3.116 0-5.641 2.512-5.641 5.61 0 3.098 2.525 5.61 5.64 5.61zm-.037-2.2c1.75 0 3.17-1.526 3.17-3.409 0-1.883-1.42-3.41-3.17-3.41-1.751 0-3.17 1.527-3.17 3.41 0 1.883 1.419 3.41 3.17 3.41z"/><g><path d="M62.286 30.593h7.448l-.074 2.346h-7.374z"/><path d="M70.355 30.593v.087c.82 5.975-3.273 9.416-8.18 9.372-4.825-.007-8.737-3.89-8.737-8.69 0-4.798 3.912-8.688 8.738-8.688 2.522 0 4.642.876 6.092 2.398l-1.704 1.695c-1.063-1.081-2.573-1.673-4.315-1.673-3.482 0-6.304 2.806-6.304 6.269 0 3.462 2.822 6.27 6.304 6.27s5.954-2.002 5.949-6.27c.006-.264 0-.52-.018-.77h2.175z"/></g></g><g transform="translate(12.915 8.211)"><mask id="d" fill="#fff"><use xlink:href="#a"/></mask><use fill="url(#b)" transform="rotate(90 15.257 17.663)" xlink:href="#a"/><path fill="url(#c)" mask="url(#d)" d="M0 .988l16.563 16.408L-.214 34.45z"/><path fill="url(#e)" mask="url(#d)" d="M-3.406-2.39L16.561 17.4l5.936-5.644z"/><path fill="url(#f)" mask="url(#d)" d="M16.564 17.397l9.088 9.13-27.15 9.13z"/></g></g></svg>