<svg width="162" height="135" viewBox="0 0 162 135" xmlns="http://www.w3.org/2000/svg" xmlns:xlink="http://www.w3.org/1999/xlink"><title>Subscribe - Mail icon</title><defs><path id="a" d="M0 .673v7.25h161.75V.673H0z"/><path d="M.667 12.844h2.861c.306-5.1 4.339-9.198 9.381-9.554V.4C6.29.764.978 6.155.667 12.844z" id="c"/><path d="M.667 12.844h2.861c.306-5.099 4.339-9.198 9.382-9.553V.4C6.291.764.978 6.155.667 12.844z" id="d"/><path d="M.949 3.29c5.043.356 9.076 4.455 9.38 9.554h2.862C12.88 6.156 7.567.764.949.4v2.89z" id="e"/><path d="M.949 3.291c5.043.355 9.076 4.454 9.38 9.553h2.863C12.881 6.156 7.567.764.949.4v2.891z" id="f"/><path d="M13.227.917c-.154 2.135-.935 3.864-2.507 6.011-1.006 1.375-3.641 4.623-5.797 7.322l-.003.004c-.811 1.016-1.559 1.951-2.136 2.67L.888 19.293l.744.928 1.152 1.435 1.151-1.435c.295-.367 7.285-8.937 9.129-11.485 1.955-2.7 2.972-5.001 3.127-7.819h-2.964z" id="g"/><path d="M13.227.917c-.154 2.136-.935 3.865-2.506 6.011-1.007 1.375-3.642 4.623-5.799 7.322l-.002.004c-.811 1.016-1.559 1.951-2.136 2.67L.888 19.293l.745.928 1.151 1.435 1.151-1.435c.294-.367 7.285-8.937 9.129-11.485 1.955-2.7 2.972-5.001 3.128-7.819h-2.965z" id="h"/></defs><g fill="none" fill-rule="evenodd"><path d="M147.583 83.163c0-28.167-22.833-51-51-51s-51 22.833-51 51c0 25.444 18.635 46.53 43 50.37V65.497h15.333v68.134c24.691-3.557 43.667-24.792 43.667-50.467z" fill="#48AADD"/><path d="M88.084 64.996h16.332v68.054c24.365-3.8 42.667-25.143 42.667-49.887 0-27.846-22.654-50.5-50.5-50.5s-50.5 22.654-50.5 50.5c0 24.817 17.628 45.66 42 49.783v-67.95zm15.332 69.212V65.996H89.084v68.123l-.579-.091c-25.16-3.966-43.421-25.357-43.421-50.865 0-28.397 23.102-51.5 51.5-51.5 28.397 0 51.5 23.103 51.5 51.5 0 25.432-18.959 47.34-44.096 50.963l-.572.082z" fill="#1A95D4"/><path d="M96.583 134.652v-.979c2.389 0 4.833-.177 7.265-.527l.138.97a52.21 52.21 0 0 1-7.403.536" fill="#0077BC"/><path d="M96.583 134.163c-2.722 0-5.393-.22-8-.63" fill="#1A95D4"/><path d="M96.583 134.652a52.17 52.17 0 0 1-8.076-.635l.153-.967a51.06 51.06 0 0 0 7.923.623v.98z" fill="#0077BC"/><path d="M88.583 65.496v68.037c2.607.41 5.278.63 8 .63 2.491 0 4.938-.188 7.333-.533V65.496H88.583z" fill="#1A95D4"/><path d="M89.084 133.104c4.739.706 9.508.745 14.332.092v-67.2H89.084v67.108zm7.5 1.56c-2.683 0-5.4-.215-8.079-.636l-.421-.067V64.996h16.332v69.068l-.427.061a52.113 52.113 0 0 1-7.406.538z" fill="#0077BC"/><path fill-opacity=".1" fill="#000" d="M88.583 98.496l15.333-7.667V80.038L88.25 81.496z"/><path d="M144.083 9.83h-84v68H161.25v-40s.166-14.168-17.167-28" fill="#A3D5EE"/><path d="M60.584 77.33H160.75v-39.5c0-.145-.061-14.034-16.843-27.5H60.584v67zm101.166 1H59.584v-69h84.673l.137.109c17.326 13.827 17.362 27.808 17.356 28.396V78.33z" fill="#1A95D4"/><path d="M156.083 11.33c0 5.982-4.85 10.832-10.833 10.832-5.983 0-10.834-4.85-10.834-10.833 0-5.983 4.851-10.833 10.834-10.833s10.833 4.85 10.833 10.833" fill="#FB8CB0"/><path d="M145.25.996c-5.697 0-10.333 4.635-10.333 10.333s4.636 10.334 10.333 10.334 10.333-4.636 10.333-10.334c0-5.698-4.636-10.333-10.333-10.333m0 21.667c-6.249 0-11.333-5.084-11.333-11.334 0-6.249 5.084-11.333 11.333-11.333 6.249 0 11.333 5.084 11.333 11.333 0 6.25-5.084 11.334-11.333 11.334" fill="#FA6F9C"/><path d="M91.435 38.663C90.445 22.573 77.089 9.83 60.75 9.83c-16.338 0-29.694 12.744-30.684 28.833H30v38.25h61.5v-38.25h-.065z" fill="#76BFE5"/><path d="M30.5 76.413H91V39.015l-.064-.321C89.957 22.788 76.698 10.33 60.75 10.33S31.543 22.788 30.564 38.694l-.064.469v37.25zm61.5 1H29.5v-39.25h.099C30.839 21.956 44.432 9.33 60.75 9.33c16.318 0 29.911 12.626 31.151 28.833h.034l.065.5v38.75z" fill="#1A95D4"/><path d="M161.25 82.163v1H1.494a.997.997 0 0 1-.994-1v-4.25c0-.552.445-1 .994-1H161.25v5.25z" fill="#1A95D4"/><g transform="translate(0 75.74)"><mask id="b" fill="#fff"><use xlink:href="#a"/></mask><path d="M1.494 1.673a.498.498 0 0 0-.494.5v4.25c0 .275.222.5.494.5H160.75v-5.25H1.494zm160.256 6.25H1.494A1.499 1.499 0 0 1 0 6.423v-4.25c0-.827.67-1.5 1.494-1.5H161.75v7.25z" fill="#0077BC" mask="url(#b)"/></g><text font-family="AvenirNext-DemiBold, Avenir Next" font-size="12" font-weight="500" fill="#FFF" transform="translate(0 -.26)"><tspan x="141.25" y="15.031">3</tspan></text><path d="M122.909 31.03v-2.89c-6.618.365-11.931 5.755-12.242 12.444h2.86c.306-5.1 4.34-9.198 9.382-9.554M134.33 40.583h2.86c-.31-6.688-5.623-12.079-12.241-12.443v2.89c5.042.356 9.076 4.454 9.38 9.553" fill="#FFF"/><path d="M124.116 54.787c2.076-2.656 5.526-6.997 6.042-7.763.773-1.146 1.809-2.65 1.921-4.946.007-.145.011-.29.011-.437 0-4.585-3.645-8.316-8.125-8.316s-8.125 3.73-8.125 8.316c0 .147.004.292.011.437a8.31 8.31 0 0 0 1.922 4.947l.053.064a8.21 8.21 0 0 0 3.694 2.48l1.817-2.332-1.604-.8c-1.821-1.051-2.851-2.523-2.952-4.517a5.08 5.08 0 0 1-.008-.28c0-2.93 2.329-5.313 5.192-5.313s5.192 2.384 5.192 5.314c0 .095-.003.188-.007.279-.061 1.195-.424 2.009-1.218 3.145-.794 1.136-7.303 9.377-7.303 9.377-1.823-2.334-3.719-4.726-4.536-5.86-1.531-2.125-2.335-3.924-2.486-6.086h-2.94c.154 2.853 1.182 5.23 3.101 7.917 1.202 1.68 4.601 5.949 6.863 8.834l1.877-2.402 1.608-2.058zM131.72 48.668c-1.005 1.375-3.641 4.624-5.797 7.323l-.002.002a2722.45 2722.45 0 0 1-2.137 2.67l-1.895 2.37.743.927 1.152 1.436 1.152-1.436c.294-.366 7.284-8.937 9.128-11.483 1.956-2.701 2.972-5.002 3.128-7.82h-2.965c-.153 2.135-.935 3.864-2.506 6.01M91.031 76.444h-38.5a1 1 0 0 1-1-1v-35.5a1 1 0 0 1 1-1h38.5v37.5z" fill="#FFF"/><path fill="#A0A0A0" d="M68.125 57.538h22.906v-1.512H68.125zM68.125 62.319h22.906v-1.625H68.125zM68.125 66.194h22.906v-1.512H68.125zM59 48.042h12.281V46.53H59z"/><path fill-opacity=".1" fill="#000" d="M90.031 76.444h-18.75l5.97-37.5h13.78v37.5z"/></g></svg>