<svg width="141" height="118" viewBox="0 0 141 118" xmlns="http://www.w3.org/2000/svg" xmlns:xlink="http://www.w3.org/1999/xlink"><title>Mail icon</title><defs><path id="a" d="M0 .584v6.29h140.782V.584H0z"/><path d="M.58 11.144h2.49c.267-4.425 3.777-7.98 8.166-8.29V.348C5.475.663.85 5.34.58 11.144z" id="c"/><path d="M.58 11.144h2.49c.267-4.424 3.777-7.98 8.166-8.289V.347C5.476.663.851 5.34.581 11.144z" id="d"/><path d="M.826 2.855c4.39.308 7.9 3.865 8.164 8.29h2.491C11.211 5.34 6.586.662.826.346v2.508z" id="e"/><path d="M.826 2.855c4.39.308 7.9 3.865 8.164 8.29h2.492C11.212 5.34 6.586.662.826.346v2.508z" id="f"/><path d="M11.512.796C11.378 2.648 10.7 4.148 9.33 6.01c-.875 1.193-3.169 4.011-5.045 6.353l-.003.003c-.706.882-1.357 1.693-1.859 2.317L.773 16.74c.365.452.601.747.647.805l1.003 1.245 1.002-1.245c.257-.319 6.34-7.754 7.946-9.965 1.701-2.343 2.586-4.34 2.721-6.784h-2.58z" id="g"/><path d="M11.512.796c-.134 1.853-.813 3.353-2.18 5.215-.877 1.193-3.17 4.011-5.048 6.353l-.002.003c-.706.882-1.357 1.693-1.859 2.317L.773 16.74l.648.805 1.002 1.245 1.002-1.245c.256-.319 6.34-7.754 7.946-9.965 1.701-2.343 2.586-4.34 2.722-6.784h-2.58z" id="h"/></defs><g fill="none" fill-rule="evenodd"><path d="M84.063 117.698v-.85c2.08 0 4.206-.153 6.323-.457l.12.841a45.581 45.581 0 0 1-6.443.466" fill="#0077BC"/><path d="M84.063 117.274c-2.369 0-4.694-.19-6.963-.546" fill="#1A95D4"/><path d="M84.063 117.698c-2.333 0-4.698-.186-7.03-.55l.134-.84c2.287.36 4.607.54 6.896.54v.85z" fill="#0077BC"/><path d="M77.1 57.695v59.033c2.27.356 4.594.546 6.963.546 2.168 0 4.298-.163 6.383-.463V57.695H77.1z" fill="#1A95D4"/><path d="M77.536 116.355a44.2 44.2 0 0 0 12.475.08V58.129H77.536v58.226zm6.527 1.353c-2.334 0-4.7-.186-7.03-.551l-.368-.058V57.26h14.216v59.927l-.372.053c-2.157.31-4.325.467-6.446.467z" fill="#0077BC"/><path fill-opacity=".1" fill="#000" d="M77.1 86.327l13.346-6.652v-9.363L76.81 71.577z"/><path d="M125.406 9.396H52.295v59h88.052V33.69s.145-12.292-14.941-24.294" fill="#A3D5EE"/><path d="M52.73 67.963h87.182V33.69c0-.126-.053-12.177-14.66-23.86H52.73v58.132zm88.053.867H51.86V8.963h73.697l.12.094c15.08 11.997 15.111 24.128 15.106 24.638V68.83z" fill="#1A95D4"/><path d="M135.85 10.698c0 5.19-4.221 9.399-9.428 9.399-5.208 0-9.43-4.208-9.43-9.4 0-5.19 4.222-9.399 9.43-9.399 5.207 0 9.428 4.208 9.428 9.4" fill="#FB8CB0"/><path d="M126.421 1.732c-4.958 0-8.993 4.022-8.993 8.965 0 4.944 4.035 8.967 8.993 8.967 4.959 0 8.994-4.023 8.994-8.967 0-4.943-4.035-8.965-8.994-8.965m0 18.8c-5.439 0-9.864-4.412-9.864-9.835 0-5.421 4.425-9.833 9.864-9.833 5.44 0 9.864 4.412 9.864 9.833 0 5.423-4.425 9.834-9.864 9.834" fill="#FA6F9C"/><path d="M79.582 34.413C78.72 20.453 67.096 9.397 52.875 9.397c-14.22 0-25.845 11.057-26.707 25.016h-.057v33.188h53.528V34.413h-.057z" fill="#76BFE5"/><path d="M26.546 67.167h52.658V34.72l-.056-.279c-.852-13.8-12.392-24.61-26.273-24.61-13.88 0-25.42 10.81-26.273 24.61l-.056.407v32.32zm53.528.868H25.676V33.98h.086c1.08-14.062 12.91-25.017 27.113-25.017S78.909 19.918 79.988 33.98h.03l.056.433v33.622z" fill="#1A95D4"/><path d="M140.347 72.156v.868H1.3a.867.867 0 0 1-.865-.868v-3.687c0-.48.388-.868.865-.868h139.047v4.555z" fill="#1A95D4"/><g transform="translate(0 66.583)"><mask id="b" fill="#fff"><use xlink:href="#a"/></mask><path d="M1.3 1.451a.433.433 0 0 0-.43.434v3.688c0 .238.193.434.43.434h138.612V1.45H1.3zm139.482 5.423H1.3C.583 6.874 0 6.29 0 5.573V1.885C0 1.168.583.584 1.3.584h139.482v6.29z" fill="#0077BC" mask="url(#b)"/></g><text font-family="AvenirNext-DemiBold, Avenir Next" font-size="12" font-weight="500" fill="#FFF" transform="translate(0 .642)"><tspan x="122.94" y="13.63">3</tspan></text><path d="M106.976 27.79v-2.506c-5.76.316-10.384 4.992-10.655 10.796h2.49c.266-4.424 3.777-7.98 8.165-8.29M116.917 36.08h2.49c-.27-5.803-4.895-10.48-10.655-10.797v2.507c4.388.31 7.9 3.865 8.165 8.29" fill="#FFF"/><path d="M108.027 48.403c1.807-2.304 4.81-6.07 5.259-6.735.672-.995 1.574-2.299 1.672-4.292.006-.125.01-.251.01-.379 0-3.978-3.173-7.215-7.073-7.215-3.899 0-7.071 3.237-7.071 7.215 0 .128.003.254.01.38a7.198 7.198 0 0 0 1.672 4.292l.046.055a7.146 7.146 0 0 0 3.215 2.153l1.582-2.024-1.396-.694c-1.585-.912-2.482-2.19-2.57-3.92a4.393 4.393 0 0 1-.007-.242c0-2.542 2.028-4.61 4.52-4.61 2.491 0 4.518 2.068 4.518 4.61 0 .083-.002.163-.006.242-.053 1.037-.369 1.743-1.06 2.73-.69.985-6.356 8.135-6.356 8.135-1.587-2.025-3.237-4.1-3.948-5.084-1.333-1.844-2.032-3.405-2.164-5.28h-2.559c.134 2.474 1.03 4.538 2.7 6.868 1.045 1.458 4.004 5.162 5.973 7.665l1.633-2.084 1.4-1.786zM114.646 43.094c-.876 1.193-3.17 4.012-5.047 6.354l-.001.002-1.86 2.317-1.65 2.055.647.805 1.003 1.246 1.002-1.246c.256-.318 6.34-7.754 7.945-9.963 1.703-2.344 2.587-4.34 2.723-6.785h-2.581c-.133 1.852-.814 3.352-2.181 5.215M79.23 67.194H45.723a.87.87 0 0 1-.87-.868V35.525a.87.87 0 0 1 .87-.868H79.23V67.195z" fill="#FFF"/><path fill="#A0A0A0" d="M59.294 50.79h19.937v-1.312H59.294zM59.294 54.939h19.937v-1.41H59.294zM59.294 58.3h19.937V56.99H59.294zM51.352 42.551H62.04V41.24H51.35z"/><path fill-opacity=".1" fill="#000" d="M78.36 67.194H62.042l5.195-32.537h11.995v32.537z"/></g></svg>