<svg width="92" height="34" viewBox="0 0 92 34" xmlns="http://www.w3.org/2000/svg"><title>Logo</title><g fill="#FFF" fill-rule="evenodd"><path d="M12 2.786V0C5.513.351.305 5.55 0 12h2.805C3.104 7.082 7.058 3.13 12 2.786M23.195 12H26C25.695 5.55 20.487.351 14 0v2.786c4.942.344 8.896 4.297 9.195 9.214"/><path d="M11.611 27.678l1.572-1.98c2.035-2.561 5.417-6.748 5.923-7.487.758-1.104 1.773-2.554 1.883-4.77a8.2 8.2 0 0 0 .011-.42C21 8.597 17.427 5 13.036 5 8.644 5 5.07 8.598 5.07 13.02a7.945 7.945 0 0 0 1.895 5.192l.052.062.004-.003a7.985 7.985 0 0 0 3.616 2.395l1.781-2.25-1.571-.77s.77.437-.001 0c-1.785-1.014-2.794-2.434-2.893-4.357a5.286 5.286 0 0 1-.008-.269c0-2.825 2.283-5.125 5.09-5.125 2.806 0 5.089 2.3 5.089 5.125 0 .092-.003.181-.007.27-.06 1.151-.416 1.936-1.194 3.032-.778 1.095-7.159 9.043-7.159 9.043-1.787-2.25-3.646-4.558-4.446-5.651-1.5-2.05-2.288-3.785-2.437-5.87H0c.152 2.751 1.159 5.046 3.04 7.636C4.218 23.1 7.55 27.217 9.767 30l1.84-2.317.004-.005M20.638 19.797c-.987 1.326-3.57 4.459-5.684 7.062l-.002.002c-.795.98-1.529 1.882-2.094 2.576L11 31.722l.729.894L12.858 34l1.129-1.384c.288-.353 7.14-8.619 8.948-11.075C24.85 18.937 25.847 16.717 26 14h-2.906c-.15 2.059-.916 3.726-2.456 5.797M61 23c-.546 0-1.02.2-1.411.595-.391.398-.589.879-.589 1.43a1.934 1.934 0 0 0 .604 1.409c.182.17.395.31.635.411.239.103.495.155.761.155.547 0 1.022-.2 1.413-.595.39-.395.587-.876.587-1.428a1.88 1.88 0 0 0-.602-1.41A1.978 1.978 0 0 0 61 23M68.817 16.555a3.49 3.49 0 0 1 1.148-.984c.457-.247.996-.372 1.602-.372.53 0 1.061.126 1.577.375.51.247.898.557 1.152.92l.098.139L77 14.34l-.095-.114c-.572-.692-1.355-1.242-2.326-1.636a7.97 7.97 0 0 0-3.012-.59 8.054 8.054 0 0 0-2.927.532 7.32 7.32 0 0 0-2.4 1.506 7.108 7.108 0 0 0-1.636 2.364c-.4.922-.604 1.965-.604 3.099 0 1.172.203 2.234.604 3.155a6.98 6.98 0 0 0 1.651 2.365 7.005 7.005 0 0 0 2.447 1.478 8.69 8.69 0 0 0 2.951.501c1.05 0 2.044-.173 2.951-.516.913-.343 1.676-.838 2.267-1.47l.1-.108-2.387-2.424-.108.133c-.307.381-.722.677-1.235.879a4.22 4.22 0 0 1-1.56.307c-.625 0-1.179-.125-1.644-.372a3.621 3.621 0 0 1-1.179-.986 4.372 4.372 0 0 1-.71-1.382 5.272 5.272 0 0 1-.237-1.56c0-.528.075-1.054.224-1.563.146-.506.375-.972.682-1.383M88.266 19.443c0 .522-.079 1.052-.234 1.575-.151.516-.384.986-.693 1.397a3.646 3.646 0 0 1-1.163 1c-.463.256-1.027.386-1.676.386-.65 0-1.213-.13-1.676-.387a3.641 3.641 0 0 1-1.163-.999 4.367 4.367 0 0 1-.695-1.397 5.614 5.614 0 0 1-.232-1.575c0-.52.078-1.046.232-1.56a4.39 4.39 0 0 1 .695-1.384 3.489 3.489 0 0 1 1.161-.984c.463-.248 1.028-.374 1.678-.374.65 0 1.215.126 1.678.374.466.248.857.58 1.16.984.31.412.543.878.694 1.384.155.512.234 1.037.234 1.56m3.144-3.056a7.191 7.191 0 0 0-1.598-2.35 7.068 7.068 0 0 0-2.387-1.506A8.097 8.097 0 0 0 84.5 12c-1.025 0-2.01.179-2.927.531a7.03 7.03 0 0 0-2.385 1.507 7.144 7.144 0 0 0-1.598 2.349c-.391.913-.59 1.94-.59 3.056 0 1.115.199 2.148.59 3.069a7.274 7.274 0 0 0 1.597 2.378 7.267 7.267 0 0 0 2.384 1.55c.918.371 1.903.56 2.93.56a7.741 7.741 0 0 0 2.926-.56 7.298 7.298 0 0 0 2.386-1.55 7.309 7.309 0 0 0 1.597-2.378c.392-.921.59-1.954.59-3.07 0-1.115-.198-2.142-.59-3.055M44.992 8.94a6.868 6.868 0 0 0-2.235-1.428A7.467 7.467 0 0 0 39.987 7c-.968 0-1.89.163-2.741.484a6.46 6.46 0 0 0-2.225 1.389 6.565 6.565 0 0 0-1.48 2.18c-.359.844-.541 1.796-.541 2.828 0 .89.16 1.726.476 2.487.16.39.36.763.596 1.113l-.042-.009.318.391c.154.195.3.361.446.509.152.154.328.31.533.474 1.044.885 2.327 1.572 3.347 1.791l.101.022 1.63-2.56-.202-.055c-.013-.004-1.283-.362-2.705-1.75a3.087 3.087 0 0 1-.695-1.125 4.224 4.224 0 0 1-.242-1.451c0-1.091.32-1.991.952-2.674.63-.679 1.471-1.023 2.5-1.023.521 0 .999.1 1.42.298.423.2.79.47 1.093.805.303.337.539.727.699 1.157.16.434.24.9.24 1.383 0 2.212-1.19 4.157-2.41 5.96L36.067 27h4.24l4.735-7.504c.302-.487.576-.965.814-1.42.238-.449.446-.906.618-1.359A8.179 8.179 0 0 0 47 13.745c0-.943-.178-1.835-.528-2.652a6.575 6.575 0 0 0-1.48-2.153M60.856 18.077c.239-.45.446-.907.618-1.36A8.16 8.16 0 0 0 62 13.746c0-.943-.178-1.836-.528-2.653a6.566 6.566 0 0 0-1.48-2.152 6.873 6.873 0 0 0-2.235-1.43A7.468 7.468 0 0 0 54.987 7c-.968 0-1.89.163-2.741.484a6.457 6.457 0 0 0-2.225 1.389 6.565 6.565 0 0 0-1.48 2.18c-.359.844-.541 1.796-.541 2.828 0 .89.16 1.726.476 2.487.16.39.36.763.595 1.113l-.04-.009.317.39c.153.195.299.362.446.51.152.153.327.31.533.474 1.044.885 2.327 1.571 3.347 1.791l.102.022 1.628-2.56-.201-.055c-.013-.004-1.282-.361-2.705-1.75a3.076 3.076 0 0 1-.694-1.125 4.225 4.225 0 0 1-.243-1.451c0-1.091.32-1.99.953-2.674.63-.679 1.47-1.023 2.499-1.023.52 0 .999.1 1.42.298.423.2.79.47 1.093.805.304.337.538.727.699 1.157.16.434.24.9.24 1.383 0 2.212-1.19 4.158-2.41 5.96L51.067 27h4.24l4.735-7.504c.303-.488.577-.966.814-1.419"/></g></svg>